<svg width="1711" height="1186" viewBox="0 0 1711 1186" fill="none" xmlns="http://www.w3.org/2000/svg">
<path d="M66.66 44.692L60.612 38.656L66.66 32.608L72.696 38.656L66.66 44.692ZM66.66 43.6L71.604 38.656L66.66 33.7L61.716 38.656L66.66 43.6ZM192.191 44.692L186.143 38.656L192.191 32.608L198.227 38.656L192.191 44.692ZM192.191 43.6L197.135 38.656L192.191 33.7L187.247 38.656L192.191 43.6ZM317.723 44.692L311.675 38.656L317.723 32.608L323.759 38.656L317.723 44.692ZM317.723 43.6L322.667 38.656L317.723 33.7L312.779 38.656L317.723 43.6ZM443.254 44.692L437.206 38.656L443.254 32.608L449.29 38.656L443.254 44.692ZM443.254 43.6L448.198 38.656L443.254 33.7L438.31 38.656L443.254 43.6ZM568.785 44.692L562.737 38.656L568.785 32.608L574.821 38.656L568.785 44.692ZM568.785 43.6L573.729 38.656L568.785 33.7L563.841 38.656L568.785 43.6ZM694.316 44.692L688.268 38.656L694.316 32.608L700.352 38.656L694.316 44.692ZM694.316 43.6L699.26 38.656L694.316 33.7L689.372 38.656L694.316 43.6ZM819.848 44.692L813.8 38.656L819.848 32.608L825.884 38.656L819.848 44.692ZM819.848 43.6L824.792 38.656L819.848 33.7L814.904 38.656L819.848 43.6ZM945.379 44.692L939.331 38.656L945.379 32.608L951.415 38.656L945.379 44.692ZM945.379 43.6L950.323 38.656L945.379 33.7L940.435 38.656L945.379 43.6ZM1070.91 44.692L1064.86 38.656L1070.91 32.608L1076.95 38.656L1070.91 44.692ZM1070.91 43.6L1075.85 38.656L1070.91 33.7L1065.97 38.656L1070.91 43.6ZM1196.44 44.692L1190.39 38.656L1196.44 32.608L1202.48 38.656L1196.44 44.692ZM1196.44 43.6L1201.39 38.656L1196.44 33.7L1191.5 38.656L1196.44 43.6ZM1321.97 44.692L1315.92 38.656L1321.97 32.608L1328.01 38.656L1321.97 44.692ZM1321.97 43.6L1326.92 38.656L1321.97 33.7L1317.03 38.656L1321.97 43.6ZM1447.5 44.692L1441.46 38.656L1447.5 32.608L1453.54 38.656L1447.5 44.692ZM1447.5 43.6L1452.45 38.656L1447.5 33.7L1442.56 38.656L1447.5 43.6ZM1573.04 44.692L1566.99 38.656L1573.04 32.608L1579.07 38.656L1573.04 44.692ZM1573.04 43.6L1577.98 38.656L1573.04 33.7L1568.09 38.656L1573.04 43.6ZM1698.57 44.692L1692.52 38.656L1698.57 32.608L1704.6 38.656L1698.57 44.692ZM1698.57 43.6L1703.51 38.656L1698.57 33.7L1693.62 38.656L1698.57 43.6Z" fill="#F4DDFB"/>
<path d="M66.66 104.692L60.612 98.656L66.66 92.608L72.696 98.656L66.66 104.692ZM66.66 103.6L71.604 98.656L66.66 93.7L61.716 98.656L66.66 103.6ZM192.191 104.692L186.143 98.656L192.191 92.608L198.227 98.656L192.191 104.692ZM192.191 103.6L197.135 98.656L192.191 93.7L187.247 98.656L192.191 103.6ZM317.723 104.692L311.675 98.656L317.723 92.608L323.759 98.656L317.723 104.692ZM317.723 103.6L322.667 98.656L317.723 93.7L312.779 98.656L317.723 103.6ZM443.254 104.692L437.206 98.656L443.254 92.608L449.29 98.656L443.254 104.692ZM443.254 103.6L448.198 98.656L443.254 93.7L438.31 98.656L443.254 103.6ZM568.785 104.692L562.737 98.656L568.785 92.608L574.821 98.656L568.785 104.692ZM568.785 103.6L573.729 98.656L568.785 93.7L563.841 98.656L568.785 103.6ZM694.316 104.692L688.268 98.656L694.316 92.608L700.352 98.656L694.316 104.692ZM694.316 103.6L699.26 98.656L694.316 93.7L689.372 98.656L694.316 103.6ZM819.848 104.692L813.8 98.656L819.848 92.608L825.884 98.656L819.848 104.692ZM819.848 103.6L824.792 98.656L819.848 93.7L814.904 98.656L819.848 103.6ZM945.379 104.692L939.331 98.656L945.379 92.608L951.415 98.656L945.379 104.692ZM945.379 103.6L950.323 98.656L945.379 93.7L940.435 98.656L945.379 103.6ZM1070.91 104.692L1064.86 98.656L1070.91 92.608L1076.95 98.656L1070.91 104.692ZM1070.91 103.6L1075.85 98.656L1070.91 93.7L1065.97 98.656L1070.91 103.6ZM1196.44 104.692L1190.39 98.656L1196.44 92.608L1202.48 98.656L1196.44 104.692ZM1196.44 103.6L1201.39 98.656L1196.44 93.7L1191.5 98.656L1196.44 103.6ZM1321.97 104.692L1315.92 98.656L1321.97 92.608L1328.01 98.656L1321.97 104.692ZM1321.97 103.6L1326.92 98.656L1321.97 93.7L1317.03 98.656L1321.97 103.6ZM1447.5 104.692L1441.46 98.656L1447.5 92.608L1453.54 98.656L1447.5 104.692ZM1447.5 103.6L1452.45 98.656L1447.5 93.7L1442.56 98.656L1447.5 103.6ZM1573.04 104.692L1566.99 98.656L1573.04 92.608L1579.07 98.656L1573.04 104.692ZM1573.04 103.6L1577.98 98.656L1573.04 93.7L1568.09 98.656L1573.04 103.6ZM1698.57 104.692L1692.52 98.656L1698.57 92.608L1704.6 98.656L1698.57 104.692ZM1698.57 103.6L1703.51 98.656L1698.57 93.7L1693.62 98.656L1698.57 103.6Z" fill="#F4DDFB"/>
<path d="M6.66 14.692L0.612 8.656L6.66 2.608L12.696 8.656L6.66 14.692ZM6.66 13.6L11.604 8.656L6.66 3.7L1.716 8.656L6.66 13.6ZM132.191 14.692L126.143 8.656L132.191 2.608L138.227 8.656L132.191 14.692ZM132.191 13.6L137.135 8.656L132.191 3.7L127.247 8.656L132.191 13.6ZM257.723 14.692L251.675 8.656L257.723 2.608L263.759 8.656L257.723 14.692ZM257.723 13.6L262.667 8.656L257.723 3.7L252.779 8.656L257.723 13.6ZM383.254 14.692L377.206 8.656L383.254 2.608L389.29 8.656L383.254 14.692ZM383.254 13.6L388.198 8.656L383.254 3.7L378.31 8.656L383.254 13.6ZM508.785 14.692L502.737 8.656L508.785 2.608L514.821 8.656L508.785 14.692ZM508.785 13.6L513.729 8.656L508.785 3.7L503.841 8.656L508.785 13.6ZM634.316 14.692L628.268 8.656L634.316 2.608L640.352 8.656L634.316 14.692ZM634.316 13.6L639.26 8.656L634.316 3.7L629.372 8.656L634.316 13.6ZM759.848 14.692L753.8 8.656L759.848 2.608L765.884 8.656L759.848 14.692ZM759.848 13.6L764.792 8.656L759.848 3.7L754.904 8.656L759.848 13.6ZM885.379 14.692L879.331 8.656L885.379 2.608L891.415 8.656L885.379 14.692ZM885.379 13.6L890.323 8.656L885.379 3.7L880.435 8.656L885.379 13.6ZM1010.91 14.692L1004.86 8.656L1010.91 2.608L1016.95 8.656L1010.91 14.692ZM1010.91 13.6L1015.85 8.656L1010.91 3.7L1005.97 8.656L1010.91 13.6ZM1136.44 14.692L1130.39 8.656L1136.44 2.608L1142.48 8.656L1136.44 14.692ZM1136.44 13.6L1141.39 8.656L1136.44 3.7L1131.5 8.656L1136.44 13.6ZM1261.97 14.692L1255.92 8.656L1261.97 2.608L1268.01 8.656L1261.97 14.692ZM1261.97 13.6L1266.92 8.656L1261.97 3.7L1257.03 8.656L1261.97 13.6ZM1387.5 14.692L1381.46 8.656L1387.5 2.608L1393.54 8.656L1387.5 14.692ZM1387.5 13.6L1392.45 8.656L1387.5 3.7L1382.56 8.656L1387.5 13.6ZM1513.04 14.692L1506.99 8.656L1513.04 2.608L1519.07 8.656L1513.04 14.692ZM1513.04 13.6L1517.98 8.656L1513.04 3.7L1508.09 8.656L1513.04 13.6ZM1638.57 14.692L1632.52 8.656L1638.57 2.608L1644.6 8.656L1638.57 14.692ZM1638.57 13.6L1643.51 8.656L1638.57 3.7L1633.62 8.656L1638.57 13.6Z" fill="#F4DDFB"/>
<path d="M6.66 74.692L0.612 68.656L6.66 62.608L12.696 68.656L6.66 74.692ZM6.66 73.6L11.604 68.656L6.66 63.7L1.716 68.656L6.66 73.6ZM132.191 74.692L126.143 68.656L132.191 62.608L138.227 68.656L132.191 74.692ZM132.191 73.6L137.135 68.656L132.191 63.7L127.247 68.656L132.191 73.6ZM257.723 74.692L251.675 68.656L257.723 62.608L263.759 68.656L257.723 74.692ZM257.723 73.6L262.667 68.656L257.723 63.7L252.779 68.656L257.723 73.6ZM383.254 74.692L377.206 68.656L383.254 62.608L389.29 68.656L383.254 74.692ZM383.254 73.6L388.198 68.656L383.254 63.7L378.31 68.656L383.254 73.6ZM508.785 74.692L502.737 68.656L508.785 62.608L514.821 68.656L508.785 74.692ZM508.785 73.6L513.729 68.656L508.785 63.7L503.841 68.656L508.785 73.6ZM634.316 74.692L628.268 68.656L634.316 62.608L640.352 68.656L634.316 74.692ZM634.316 73.6L639.26 68.656L634.316 63.7L629.372 68.656L634.316 73.6ZM759.848 74.692L753.8 68.656L759.848 62.608L765.884 68.656L759.848 74.692ZM759.848 73.6L764.792 68.656L759.848 63.7L754.904 68.656L759.848 73.6ZM885.379 74.692L879.331 68.656L885.379 62.608L891.415 68.656L885.379 74.692ZM885.379 73.6L890.323 68.656L885.379 63.7L880.435 68.656L885.379 73.6ZM1010.91 74.692L1004.86 68.656L1010.91 62.608L1016.95 68.656L1010.91 74.692ZM1010.91 73.6L1015.85 68.656L1010.91 63.7L1005.97 68.656L1010.91 73.6ZM1136.44 74.692L1130.39 68.656L1136.44 62.608L1142.48 68.656L1136.44 74.692ZM1136.44 73.6L1141.39 68.656L1136.44 63.7L1131.5 68.656L1136.44 73.6ZM1261.97 74.692L1255.92 68.656L1261.97 62.608L1268.01 68.656L1261.97 74.692ZM1261.97 73.6L1266.92 68.656L1261.97 63.7L1257.03 68.656L1261.97 73.6ZM1387.5 74.692L1381.46 68.656L1387.5 62.608L1393.54 68.656L1387.5 74.692ZM1387.5 73.6L1392.45 68.656L1387.5 63.7L1382.56 68.656L1387.5 73.6ZM1513.04 74.692L1506.99 68.656L1513.04 62.608L1519.07 68.656L1513.04 74.692ZM1513.04 73.6L1517.98 68.656L1513.04 63.7L1508.09 68.656L1513.04 73.6ZM1638.57 74.692L1632.52 68.656L1638.57 62.608L1644.6 68.656L1638.57 74.692ZM1638.57 73.6L1643.51 68.656L1638.57 63.7L1633.62 68.656L1638.57 73.6Z" fill="#F4DDFB"/>
<path d="M66.66 164.692L60.612 158.656L66.66 152.608L72.696 158.656L66.66 164.692ZM66.66 163.6L71.604 158.656L66.66 153.7L61.716 158.656L66.66 163.6ZM192.191 164.692L186.143 158.656L192.191 152.608L198.227 158.656L192.191 164.692ZM192.191 163.6L197.135 158.656L192.191 153.7L187.247 158.656L192.191 163.6ZM317.723 164.692L311.675 158.656L317.723 152.608L323.759 158.656L317.723 164.692ZM317.723 163.6L322.667 158.656L317.723 153.7L312.779 158.656L317.723 163.6ZM443.254 164.692L437.206 158.656L443.254 152.608L449.29 158.656L443.254 164.692ZM443.254 163.6L448.198 158.656L443.254 153.7L438.31 158.656L443.254 163.6ZM568.785 164.692L562.737 158.656L568.785 152.608L574.821 158.656L568.785 164.692ZM568.785 163.6L573.729 158.656L568.785 153.7L563.841 158.656L568.785 163.6ZM694.316 164.692L688.268 158.656L694.316 152.608L700.352 158.656L694.316 164.692ZM694.316 163.6L699.26 158.656L694.316 153.7L689.372 158.656L694.316 163.6ZM819.848 164.692L813.8 158.656L819.848 152.608L825.884 158.656L819.848 164.692ZM819.848 163.6L824.792 158.656L819.848 153.7L814.904 158.656L819.848 163.6ZM945.379 164.692L939.331 158.656L945.379 152.608L951.415 158.656L945.379 164.692ZM945.379 163.6L950.323 158.656L945.379 153.7L940.435 158.656L945.379 163.6ZM1070.91 164.692L1064.86 158.656L1070.91 152.608L1076.95 158.656L1070.91 164.692ZM1070.91 163.6L1075.85 158.656L1070.91 153.7L1065.97 158.656L1070.91 163.6ZM1196.44 164.692L1190.39 158.656L1196.44 152.608L1202.48 158.656L1196.44 164.692ZM1196.44 163.6L1201.39 158.656L1196.44 153.7L1191.5 158.656L1196.44 163.6ZM1321.97 164.692L1315.92 158.656L1321.97 152.608L1328.01 158.656L1321.97 164.692ZM1321.97 163.6L1326.92 158.656L1321.97 153.7L1317.03 158.656L1321.97 163.6ZM1447.5 164.692L1441.46 158.656L1447.5 152.608L1453.54 158.656L1447.5 164.692ZM1447.5 163.6L1452.45 158.656L1447.5 153.7L1442.56 158.656L1447.5 163.6ZM1573.04 164.692L1566.99 158.656L1573.04 152.608L1579.07 158.656L1573.04 164.692ZM1573.04 163.6L1577.98 158.656L1573.04 153.7L1568.09 158.656L1573.04 163.6ZM1698.57 164.692L1692.52 158.656L1698.57 152.608L1704.6 158.656L1698.57 164.692ZM1698.57 163.6L1703.51 158.656L1698.57 153.7L1693.62 158.656L1698.57 163.6Z" fill="#F4DDFB"/>
<path d="M66.66 224.692L60.612 218.656L66.66 212.608L72.696 218.656L66.66 224.692ZM66.66 223.6L71.604 218.656L66.66 213.7L61.716 218.656L66.66 223.6ZM192.191 224.692L186.143 218.656L192.191 212.608L198.227 218.656L192.191 224.692ZM192.191 223.6L197.135 218.656L192.191 213.7L187.247 218.656L192.191 223.6ZM317.723 224.692L311.675 218.656L317.723 212.608L323.759 218.656L317.723 224.692ZM317.723 223.6L322.667 218.656L317.723 213.7L312.779 218.656L317.723 223.6ZM443.254 224.692L437.206 218.656L443.254 212.608L449.29 218.656L443.254 224.692ZM443.254 223.6L448.198 218.656L443.254 213.7L438.31 218.656L443.254 223.6ZM568.785 224.692L562.737 218.656L568.785 212.608L574.821 218.656L568.785 224.692ZM568.785 223.6L573.729 218.656L568.785 213.7L563.841 218.656L568.785 223.6ZM694.316 224.692L688.268 218.656L694.316 212.608L700.352 218.656L694.316 224.692ZM694.316 223.6L699.26 218.656L694.316 213.7L689.372 218.656L694.316 223.6ZM819.848 224.692L813.8 218.656L819.848 212.608L825.884 218.656L819.848 224.692ZM819.848 223.6L824.792 218.656L819.848 213.7L814.904 218.656L819.848 223.6ZM945.379 224.692L939.331 218.656L945.379 212.608L951.415 218.656L945.379 224.692ZM945.379 223.6L950.323 218.656L945.379 213.7L940.435 218.656L945.379 223.6ZM1070.91 224.692L1064.86 218.656L1070.91 212.608L1076.95 218.656L1070.91 224.692ZM1070.91 223.6L1075.85 218.656L1070.91 213.7L1065.97 218.656L1070.91 223.6ZM1196.44 224.692L1190.39 218.656L1196.44 212.608L1202.48 218.656L1196.44 224.692ZM1196.44 223.6L1201.39 218.656L1196.44 213.7L1191.5 218.656L1196.44 223.6ZM1321.97 224.692L1315.92 218.656L1321.97 212.608L1328.01 218.656L1321.97 224.692ZM1321.97 223.6L1326.92 218.656L1321.97 213.7L1317.03 218.656L1321.97 223.6ZM1447.5 224.692L1441.46 218.656L1447.5 212.608L1453.54 218.656L1447.5 224.692ZM1447.5 223.6L1452.45 218.656L1447.5 213.7L1442.56 218.656L1447.5 223.6ZM1573.04 224.692L1566.99 218.656L1573.04 212.608L1579.07 218.656L1573.04 224.692ZM1573.04 223.6L1577.98 218.656L1573.04 213.7L1568.09 218.656L1573.04 223.6ZM1698.57 224.692L1692.52 218.656L1698.57 212.608L1704.6 218.656L1698.57 224.692ZM1698.57 223.6L1703.51 218.656L1698.57 213.7L1693.62 218.656L1698.57 223.6Z" fill="#F4DDFB"/>
<path d="M6.66 134.692L0.612 128.656L6.66 122.608L12.696 128.656L6.66 134.692ZM6.66 133.6L11.604 128.656L6.66 123.7L1.716 128.656L6.66 133.6ZM132.191 134.692L126.143 128.656L132.191 122.608L138.227 128.656L132.191 134.692ZM132.191 133.6L137.135 128.656L132.191 123.7L127.247 128.656L132.191 133.6ZM257.723 134.692L251.675 128.656L257.723 122.608L263.759 128.656L257.723 134.692ZM257.723 133.6L262.667 128.656L257.723 123.7L252.779 128.656L257.723 133.6ZM383.254 134.692L377.206 128.656L383.254 122.608L389.29 128.656L383.254 134.692ZM383.254 133.6L388.198 128.656L383.254 123.7L378.31 128.656L383.254 133.6ZM508.785 134.692L502.737 128.656L508.785 122.608L514.821 128.656L508.785 134.692ZM508.785 133.6L513.729 128.656L508.785 123.7L503.841 128.656L508.785 133.6ZM634.316 134.692L628.268 128.656L634.316 122.608L640.352 128.656L634.316 134.692ZM634.316 133.6L639.26 128.656L634.316 123.7L629.372 128.656L634.316 133.6ZM759.848 134.692L753.8 128.656L759.848 122.608L765.884 128.656L759.848 134.692ZM759.848 133.6L764.792 128.656L759.848 123.7L754.904 128.656L759.848 133.6ZM885.379 134.692L879.331 128.656L885.379 122.608L891.415 128.656L885.379 134.692ZM885.379 133.6L890.323 128.656L885.379 123.7L880.435 128.656L885.379 133.6ZM1010.91 134.692L1004.86 128.656L1010.91 122.608L1016.95 128.656L1010.91 134.692ZM1010.91 133.6L1015.85 128.656L1010.91 123.7L1005.97 128.656L1010.91 133.6ZM1136.44 134.692L1130.39 128.656L1136.44 122.608L1142.48 128.656L1136.44 134.692ZM1136.44 133.6L1141.39 128.656L1136.44 123.7L1131.5 128.656L1136.44 133.6ZM1261.97 134.692L1255.92 128.656L1261.97 122.608L1268.01 128.656L1261.97 134.692ZM1261.97 133.6L1266.92 128.656L1261.97 123.7L1257.03 128.656L1261.97 133.6ZM1387.5 134.692L1381.46 128.656L1387.5 122.608L1393.54 128.656L1387.5 134.692ZM1387.5 133.6L1392.45 128.656L1387.5 123.7L1382.56 128.656L1387.5 133.6ZM1513.04 134.692L1506.99 128.656L1513.04 122.608L1519.07 128.656L1513.04 134.692ZM1513.04 133.6L1517.98 128.656L1513.04 123.7L1508.09 128.656L1513.04 133.6ZM1638.57 134.692L1632.52 128.656L1638.57 122.608L1644.6 128.656L1638.57 134.692ZM1638.57 133.6L1643.51 128.656L1638.57 123.7L1633.62 128.656L1638.57 133.6Z" fill="#F4DDFB"/>
<path d="M6.66 194.692L0.612 188.656L6.66 182.608L12.696 188.656L6.66 194.692ZM6.66 193.6L11.604 188.656L6.66 183.7L1.716 188.656L6.66 193.6ZM132.191 194.692L126.143 188.656L132.191 182.608L138.227 188.656L132.191 194.692ZM132.191 193.6L137.135 188.656L132.191 183.7L127.247 188.656L132.191 193.6ZM257.723 194.692L251.675 188.656L257.723 182.608L263.759 188.656L257.723 194.692ZM257.723 193.6L262.667 188.656L257.723 183.7L252.779 188.656L257.723 193.6ZM383.254 194.692L377.206 188.656L383.254 182.608L389.29 188.656L383.254 194.692ZM383.254 193.6L388.198 188.656L383.254 183.7L378.31 188.656L383.254 193.6ZM508.785 194.692L502.737 188.656L508.785 182.608L514.821 188.656L508.785 194.692ZM508.785 193.6L513.729 188.656L508.785 183.7L503.841 188.656L508.785 193.6ZM634.316 194.692L628.268 188.656L634.316 182.608L640.352 188.656L634.316 194.692ZM634.316 193.6L639.26 188.656L634.316 183.7L629.372 188.656L634.316 193.6ZM759.848 194.692L753.8 188.656L759.848 182.608L765.884 188.656L759.848 194.692ZM759.848 193.6L764.792 188.656L759.848 183.7L754.904 188.656L759.848 193.6ZM885.379 194.692L879.331 188.656L885.379 182.608L891.415 188.656L885.379 194.692ZM885.379 193.6L890.323 188.656L885.379 183.7L880.435 188.656L885.379 193.6ZM1010.91 194.692L1004.86 188.656L1010.91 182.608L1016.95 188.656L1010.91 194.692ZM1010.91 193.6L1015.85 188.656L1010.91 183.7L1005.97 188.656L1010.91 193.6ZM1136.44 194.692L1130.39 188.656L1136.44 182.608L1142.48 188.656L1136.44 194.692ZM1136.44 193.6L1141.39 188.656L1136.44 183.7L1131.5 188.656L1136.44 193.6ZM1261.97 194.692L1255.92 188.656L1261.97 182.608L1268.01 188.656L1261.97 194.692ZM1261.97 193.6L1266.92 188.656L1261.97 183.7L1257.03 188.656L1261.97 193.6ZM1387.5 194.692L1381.46 188.656L1387.5 182.608L1393.54 188.656L1387.5 194.692ZM1387.5 193.6L1392.45 188.656L1387.5 183.7L1382.56 188.656L1387.5 193.6ZM1513.04 194.692L1506.99 188.656L1513.04 182.608L1519.07 188.656L1513.04 194.692ZM1513.04 193.6L1517.98 188.656L1513.04 183.7L1508.09 188.656L1513.04 193.6ZM1638.57 194.692L1632.52 188.656L1638.57 182.608L1644.6 188.656L1638.57 194.692ZM1638.57 193.6L1643.51 188.656L1638.57 183.7L1633.62 188.656L1638.57 193.6Z" fill="#F4DDFB"/>
<path d="M66.66 284.692L60.612 278.656L66.66 272.608L72.696 278.656L66.66 284.692ZM66.66 283.6L71.604 278.656L66.66 273.7L61.716 278.656L66.66 283.6ZM192.191 284.692L186.143 278.656L192.191 272.608L198.227 278.656L192.191 284.692ZM192.191 283.6L197.135 278.656L192.191 273.7L187.247 278.656L192.191 283.6ZM317.723 284.692L311.675 278.656L317.723 272.608L323.759 278.656L317.723 284.692ZM317.723 283.6L322.667 278.656L317.723 273.7L312.779 278.656L317.723 283.6ZM443.254 284.692L437.206 278.656L443.254 272.608L449.29 278.656L443.254 284.692ZM443.254 283.6L448.198 278.656L443.254 273.7L438.31 278.656L443.254 283.6ZM568.785 284.692L562.737 278.656L568.785 272.608L574.821 278.656L568.785 284.692ZM568.785 283.6L573.729 278.656L568.785 273.7L563.841 278.656L568.785 283.6ZM694.316 284.692L688.268 278.656L694.316 272.608L700.352 278.656L694.316 284.692ZM694.316 283.6L699.26 278.656L694.316 273.7L689.372 278.656L694.316 283.6ZM819.848 284.692L813.8 278.656L819.848 272.608L825.884 278.656L819.848 284.692ZM819.848 283.6L824.792 278.656L819.848 273.7L814.904 278.656L819.848 283.6ZM945.379 284.692L939.331 278.656L945.379 272.608L951.415 278.656L945.379 284.692ZM945.379 283.6L950.323 278.656L945.379 273.7L940.435 278.656L945.379 283.6ZM1070.91 284.692L1064.86 278.656L1070.91 272.608L1076.95 278.656L1070.91 284.692ZM1070.91 283.6L1075.85 278.656L1070.91 273.7L1065.97 278.656L1070.91 283.6ZM1196.44 284.692L1190.39 278.656L1196.44 272.608L1202.48 278.656L1196.44 284.692ZM1196.44 283.6L1201.39 278.656L1196.44 273.7L1191.5 278.656L1196.44 283.6ZM1321.97 284.692L1315.92 278.656L1321.97 272.608L1328.01 278.656L1321.97 284.692ZM1321.97 283.6L1326.92 278.656L1321.97 273.7L1317.03 278.656L1321.97 283.6ZM1447.5 284.692L1441.46 278.656L1447.5 272.608L1453.54 278.656L1447.5 284.692ZM1447.5 283.6L1452.45 278.656L1447.5 273.7L1442.56 278.656L1447.5 283.6ZM1573.04 284.692L1566.99 278.656L1573.04 272.608L1579.07 278.656L1573.04 284.692ZM1573.04 283.6L1577.98 278.656L1573.04 273.7L1568.09 278.656L1573.04 283.6ZM1698.57 284.692L1692.52 278.656L1698.57 272.608L1704.6 278.656L1698.57 284.692ZM1698.57 283.6L1703.51 278.656L1698.57 273.7L1693.62 278.656L1698.57 283.6Z" fill="#F4DDFB"/>
<path d="M66.66 344.692L60.612 338.656L66.66 332.608L72.696 338.656L66.66 344.692ZM66.66 343.6L71.604 338.656L66.66 333.7L61.716 338.656L66.66 343.6ZM192.191 344.692L186.143 338.656L192.191 332.608L198.227 338.656L192.191 344.692ZM192.191 343.6L197.135 338.656L192.191 333.7L187.247 338.656L192.191 343.6ZM317.723 344.692L311.675 338.656L317.723 332.608L323.759 338.656L317.723 344.692ZM317.723 343.6L322.667 338.656L317.723 333.7L312.779 338.656L317.723 343.6ZM443.254 344.692L437.206 338.656L443.254 332.608L449.29 338.656L443.254 344.692ZM443.254 343.6L448.198 338.656L443.254 333.7L438.31 338.656L443.254 343.6ZM568.785 344.692L562.737 338.656L568.785 332.608L574.821 338.656L568.785 344.692ZM568.785 343.6L573.729 338.656L568.785 333.7L563.841 338.656L568.785 343.6ZM694.316 344.692L688.268 338.656L694.316 332.608L700.352 338.656L694.316 344.692ZM694.316 343.6L699.26 338.656L694.316 333.7L689.372 338.656L694.316 343.6ZM819.848 344.692L813.8 338.656L819.848 332.608L825.884 338.656L819.848 344.692ZM819.848 343.6L824.792 338.656L819.848 333.7L814.904 338.656L819.848 343.6ZM945.379 344.692L939.331 338.656L945.379 332.608L951.415 338.656L945.379 344.692ZM945.379 343.6L950.323 338.656L945.379 333.7L940.435 338.656L945.379 343.6ZM1070.91 344.692L1064.86 338.656L1070.91 332.608L1076.95 338.656L1070.91 344.692ZM1070.91 343.6L1075.85 338.656L1070.91 333.7L1065.97 338.656L1070.91 343.6ZM1196.44 344.692L1190.39 338.656L1196.44 332.608L1202.48 338.656L1196.44 344.692ZM1196.44 343.6L1201.39 338.656L1196.44 333.7L1191.5 338.656L1196.44 343.6ZM1321.97 344.692L1315.92 338.656L1321.97 332.608L1328.01 338.656L1321.97 344.692ZM1321.97 343.6L1326.92 338.656L1321.97 333.7L1317.03 338.656L1321.97 343.6ZM1447.5 344.692L1441.46 338.656L1447.5 332.608L1453.54 338.656L1447.5 344.692ZM1447.5 343.6L1452.45 338.656L1447.5 333.7L1442.56 338.656L1447.5 343.6ZM1573.04 344.692L1566.99 338.656L1573.04 332.608L1579.07 338.656L1573.04 344.692ZM1573.04 343.6L1577.98 338.656L1573.04 333.7L1568.09 338.656L1573.04 343.6ZM1698.57 344.692L1692.52 338.656L1698.57 332.608L1704.6 338.656L1698.57 344.692ZM1698.57 343.6L1703.51 338.656L1698.57 333.7L1693.62 338.656L1698.57 343.6Z" fill="#F4DDFB"/>
<path d="M6.66 254.692L0.612 248.656L6.66 242.608L12.696 248.656L6.66 254.692ZM6.66 253.6L11.604 248.656L6.66 243.7L1.716 248.656L6.66 253.6ZM132.191 254.692L126.143 248.656L132.191 242.608L138.227 248.656L132.191 254.692ZM132.191 253.6L137.135 248.656L132.191 243.7L127.247 248.656L132.191 253.6ZM257.723 254.692L251.675 248.656L257.723 242.608L263.759 248.656L257.723 254.692ZM257.723 253.6L262.667 248.656L257.723 243.7L252.779 248.656L257.723 253.6ZM383.254 254.692L377.206 248.656L383.254 242.608L389.29 248.656L383.254 254.692ZM383.254 253.6L388.198 248.656L383.254 243.7L378.31 248.656L383.254 253.6ZM508.785 254.692L502.737 248.656L508.785 242.608L514.821 248.656L508.785 254.692ZM508.785 253.6L513.729 248.656L508.785 243.7L503.841 248.656L508.785 253.6ZM634.316 254.692L628.268 248.656L634.316 242.608L640.352 248.656L634.316 254.692ZM634.316 253.6L639.26 248.656L634.316 243.7L629.372 248.656L634.316 253.6ZM759.848 254.692L753.8 248.656L759.848 242.608L765.884 248.656L759.848 254.692ZM759.848 253.6L764.792 248.656L759.848 243.7L754.904 248.656L759.848 253.6ZM885.379 254.692L879.331 248.656L885.379 242.608L891.415 248.656L885.379 254.692ZM885.379 253.6L890.323 248.656L885.379 243.7L880.435 248.656L885.379 253.6ZM1010.91 254.692L1004.86 248.656L1010.91 242.608L1016.95 248.656L1010.91 254.692ZM1010.91 253.6L1015.85 248.656L1010.91 243.7L1005.97 248.656L1010.91 253.6ZM1136.44 254.692L1130.39 248.656L1136.44 242.608L1142.48 248.656L1136.44 254.692ZM1136.44 253.6L1141.39 248.656L1136.44 243.7L1131.5 248.656L1136.44 253.6ZM1261.97 254.692L1255.92 248.656L1261.97 242.608L1268.01 248.656L1261.97 254.692ZM1261.97 253.6L1266.92 248.656L1261.97 243.7L1257.03 248.656L1261.97 253.6ZM1387.5 254.692L1381.46 248.656L1387.5 242.608L1393.54 248.656L1387.5 254.692ZM1387.5 253.6L1392.45 248.656L1387.5 243.7L1382.56 248.656L1387.5 253.6ZM1513.04 254.692L1506.99 248.656L1513.04 242.608L1519.07 248.656L1513.04 254.692ZM1513.04 253.6L1517.98 248.656L1513.04 243.7L1508.09 248.656L1513.04 253.6ZM1638.57 254.692L1632.52 248.656L1638.57 242.608L1644.6 248.656L1638.57 254.692ZM1638.57 253.6L1643.51 248.656L1638.57 243.7L1633.62 248.656L1638.57 253.6Z" fill="#F4DDFB"/>
<path d="M6.66 314.692L0.612 308.656L6.66 302.608L12.696 308.656L6.66 314.692ZM6.66 313.6L11.604 308.656L6.66 303.7L1.716 308.656L6.66 313.6ZM132.191 314.692L126.143 308.656L132.191 302.608L138.227 308.656L132.191 314.692ZM132.191 313.6L137.135 308.656L132.191 303.7L127.247 308.656L132.191 313.6ZM257.723 314.692L251.675 308.656L257.723 302.608L263.759 308.656L257.723 314.692ZM257.723 313.6L262.667 308.656L257.723 303.7L252.779 308.656L257.723 313.6ZM383.254 314.692L377.206 308.656L383.254 302.608L389.29 308.656L383.254 314.692ZM383.254 313.6L388.198 308.656L383.254 303.7L378.31 308.656L383.254 313.6ZM508.785 314.692L502.737 308.656L508.785 302.608L514.821 308.656L508.785 314.692ZM508.785 313.6L513.729 308.656L508.785 303.7L503.841 308.656L508.785 313.6ZM634.316 314.692L628.268 308.656L634.316 302.608L640.352 308.656L634.316 314.692ZM634.316 313.6L639.26 308.656L634.316 303.7L629.372 308.656L634.316 313.6ZM759.848 314.692L753.8 308.656L759.848 302.608L765.884 308.656L759.848 314.692ZM759.848 313.6L764.792 308.656L759.848 303.7L754.904 308.656L759.848 313.6ZM885.379 314.692L879.331 308.656L885.379 302.608L891.415 308.656L885.379 314.692ZM885.379 313.6L890.323 308.656L885.379 303.7L880.435 308.656L885.379 313.6ZM1010.91 314.692L1004.86 308.656L1010.91 302.608L1016.95 308.656L1010.91 314.692ZM1010.91 313.6L1015.85 308.656L1010.91 303.7L1005.97 308.656L1010.91 313.6ZM1136.44 314.692L1130.39 308.656L1136.44 302.608L1142.48 308.656L1136.44 314.692ZM1136.44 313.6L1141.39 308.656L1136.44 303.7L1131.5 308.656L1136.44 313.6ZM1261.97 314.692L1255.92 308.656L1261.97 302.608L1268.01 308.656L1261.97 314.692ZM1261.97 313.6L1266.92 308.656L1261.97 303.7L1257.03 308.656L1261.97 313.6ZM1387.5 314.692L1381.46 308.656L1387.5 302.608L1393.54 308.656L1387.5 314.692ZM1387.5 313.6L1392.45 308.656L1387.5 303.7L1382.56 308.656L1387.5 313.6ZM1513.04 314.692L1506.99 308.656L1513.04 302.608L1519.07 308.656L1513.04 314.692ZM1513.04 313.6L1517.98 308.656L1513.04 303.7L1508.09 308.656L1513.04 313.6ZM1638.57 314.692L1632.52 308.656L1638.57 302.608L1644.6 308.656L1638.57 314.692ZM1638.57 313.6L1643.51 308.656L1638.57 303.7L1633.62 308.656L1638.57 313.6Z" fill="#F4DDFB"/>
<path d="M66.66 404.692L60.612 398.656L66.66 392.608L72.696 398.656L66.66 404.692ZM66.66 403.6L71.604 398.656L66.66 393.7L61.716 398.656L66.66 403.6ZM192.191 404.692L186.143 398.656L192.191 392.608L198.227 398.656L192.191 404.692ZM192.191 403.6L197.135 398.656L192.191 393.7L187.247 398.656L192.191 403.6ZM317.723 404.692L311.675 398.656L317.723 392.608L323.759 398.656L317.723 404.692ZM317.723 403.6L322.667 398.656L317.723 393.7L312.779 398.656L317.723 403.6ZM443.254 404.692L437.206 398.656L443.254 392.608L449.29 398.656L443.254 404.692ZM443.254 403.6L448.198 398.656L443.254 393.7L438.31 398.656L443.254 403.6ZM568.785 404.692L562.737 398.656L568.785 392.608L574.821 398.656L568.785 404.692ZM568.785 403.6L573.729 398.656L568.785 393.7L563.841 398.656L568.785 403.6ZM694.316 404.692L688.268 398.656L694.316 392.608L700.352 398.656L694.316 404.692ZM694.316 403.6L699.26 398.656L694.316 393.7L689.372 398.656L694.316 403.6ZM819.848 404.692L813.8 398.656L819.848 392.608L825.884 398.656L819.848 404.692ZM819.848 403.6L824.792 398.656L819.848 393.7L814.904 398.656L819.848 403.6ZM945.379 404.692L939.331 398.656L945.379 392.608L951.415 398.656L945.379 404.692ZM945.379 403.6L950.323 398.656L945.379 393.7L940.435 398.656L945.379 403.6ZM1070.91 404.692L1064.86 398.656L1070.91 392.608L1076.95 398.656L1070.91 404.692ZM1070.91 403.6L1075.85 398.656L1070.91 393.7L1065.97 398.656L1070.91 403.6ZM1196.44 404.692L1190.39 398.656L1196.44 392.608L1202.48 398.656L1196.44 404.692ZM1196.44 403.6L1201.39 398.656L1196.44 393.7L1191.5 398.656L1196.44 403.6ZM1321.97 404.692L1315.92 398.656L1321.97 392.608L1328.01 398.656L1321.97 404.692ZM1321.97 403.6L1326.92 398.656L1321.97 393.7L1317.03 398.656L1321.97 403.6ZM1447.5 404.692L1441.46 398.656L1447.5 392.608L1453.54 398.656L1447.5 404.692ZM1447.5 403.6L1452.45 398.656L1447.5 393.7L1442.56 398.656L1447.5 403.6ZM1573.04 404.692L1566.99 398.656L1573.04 392.608L1579.07 398.656L1573.04 404.692ZM1573.04 403.6L1577.98 398.656L1573.04 393.7L1568.09 398.656L1573.04 403.6ZM1698.57 404.692L1692.52 398.656L1698.57 392.608L1704.6 398.656L1698.57 404.692ZM1698.57 403.6L1703.51 398.656L1698.57 393.7L1693.62 398.656L1698.57 403.6Z" fill="#F4DDFB"/>
<path d="M66.66 464.692L60.612 458.656L66.66 452.608L72.696 458.656L66.66 464.692ZM66.66 463.6L71.604 458.656L66.66 453.7L61.716 458.656L66.66 463.6ZM192.191 464.692L186.143 458.656L192.191 452.608L198.227 458.656L192.191 464.692ZM192.191 463.6L197.135 458.656L192.191 453.7L187.247 458.656L192.191 463.6ZM317.723 464.692L311.675 458.656L317.723 452.608L323.759 458.656L317.723 464.692ZM317.723 463.6L322.667 458.656L317.723 453.7L312.779 458.656L317.723 463.6ZM443.254 464.692L437.206 458.656L443.254 452.608L449.29 458.656L443.254 464.692ZM443.254 463.6L448.198 458.656L443.254 453.7L438.31 458.656L443.254 463.6ZM568.785 464.692L562.737 458.656L568.785 452.608L574.821 458.656L568.785 464.692ZM568.785 463.6L573.729 458.656L568.785 453.7L563.841 458.656L568.785 463.6ZM694.316 464.692L688.268 458.656L694.316 452.608L700.352 458.656L694.316 464.692ZM694.316 463.6L699.26 458.656L694.316 453.7L689.372 458.656L694.316 463.6ZM819.848 464.692L813.8 458.656L819.848 452.608L825.884 458.656L819.848 464.692ZM819.848 463.6L824.792 458.656L819.848 453.7L814.904 458.656L819.848 463.6ZM945.379 464.692L939.331 458.656L945.379 452.608L951.415 458.656L945.379 464.692ZM945.379 463.6L950.323 458.656L945.379 453.7L940.435 458.656L945.379 463.6ZM1070.91 464.692L1064.86 458.656L1070.91 452.608L1076.95 458.656L1070.91 464.692ZM1070.91 463.6L1075.85 458.656L1070.91 453.7L1065.97 458.656L1070.91 463.6ZM1196.44 464.692L1190.39 458.656L1196.44 452.608L1202.48 458.656L1196.44 464.692ZM1196.44 463.6L1201.39 458.656L1196.44 453.7L1191.5 458.656L1196.44 463.6ZM1321.97 464.692L1315.92 458.656L1321.97 452.608L1328.01 458.656L1321.97 464.692ZM1321.97 463.6L1326.92 458.656L1321.97 453.7L1317.03 458.656L1321.97 463.6ZM1447.5 464.692L1441.46 458.656L1447.5 452.608L1453.54 458.656L1447.5 464.692ZM1447.5 463.6L1452.45 458.656L1447.5 453.7L1442.56 458.656L1447.5 463.6ZM1573.04 464.692L1566.99 458.656L1573.04 452.608L1579.07 458.656L1573.04 464.692ZM1573.04 463.6L1577.98 458.656L1573.04 453.7L1568.09 458.656L1573.04 463.6ZM1698.57 464.692L1692.52 458.656L1698.57 452.608L1704.6 458.656L1698.57 464.692ZM1698.57 463.6L1703.51 458.656L1698.57 453.7L1693.62 458.656L1698.57 463.6Z" fill="#F4DDFB"/>
<path d="M6.66 374.692L0.612 368.656L6.66 362.608L12.696 368.656L6.66 374.692ZM6.66 373.6L11.604 368.656L6.66 363.7L1.716 368.656L6.66 373.6ZM132.191 374.692L126.143 368.656L132.191 362.608L138.227 368.656L132.191 374.692ZM132.191 373.6L137.135 368.656L132.191 363.7L127.247 368.656L132.191 373.6ZM257.723 374.692L251.675 368.656L257.723 362.608L263.759 368.656L257.723 374.692ZM257.723 373.6L262.667 368.656L257.723 363.7L252.779 368.656L257.723 373.6ZM383.254 374.692L377.206 368.656L383.254 362.608L389.29 368.656L383.254 374.692ZM383.254 373.6L388.198 368.656L383.254 363.7L378.31 368.656L383.254 373.6ZM508.785 374.692L502.737 368.656L508.785 362.608L514.821 368.656L508.785 374.692ZM508.785 373.6L513.729 368.656L508.785 363.7L503.841 368.656L508.785 373.6ZM634.316 374.692L628.268 368.656L634.316 362.608L640.352 368.656L634.316 374.692ZM634.316 373.6L639.26 368.656L634.316 363.7L629.372 368.656L634.316 373.6ZM759.848 374.692L753.8 368.656L759.848 362.608L765.884 368.656L759.848 374.692ZM759.848 373.6L764.792 368.656L759.848 363.7L754.904 368.656L759.848 373.6ZM885.379 374.692L879.331 368.656L885.379 362.608L891.415 368.656L885.379 374.692ZM885.379 373.6L890.323 368.656L885.379 363.7L880.435 368.656L885.379 373.6ZM1010.91 374.692L1004.86 368.656L1010.91 362.608L1016.95 368.656L1010.91 374.692ZM1010.91 373.6L1015.85 368.656L1010.91 363.7L1005.97 368.656L1010.91 373.6ZM1136.44 374.692L1130.39 368.656L1136.44 362.608L1142.48 368.656L1136.44 374.692ZM1136.44 373.6L1141.39 368.656L1136.44 363.7L1131.5 368.656L1136.44 373.6ZM1261.97 374.692L1255.92 368.656L1261.97 362.608L1268.01 368.656L1261.97 374.692ZM1261.97 373.6L1266.92 368.656L1261.97 363.7L1257.03 368.656L1261.97 373.6ZM1387.5 374.692L1381.46 368.656L1387.5 362.608L1393.54 368.656L1387.5 374.692ZM1387.5 373.6L1392.45 368.656L1387.5 363.7L1382.56 368.656L1387.5 373.6ZM1513.04 374.692L1506.99 368.656L1513.04 362.608L1519.07 368.656L1513.04 374.692ZM1513.04 373.6L1517.98 368.656L1513.04 363.7L1508.09 368.656L1513.04 373.6ZM1638.57 374.692L1632.52 368.656L1638.57 362.608L1644.6 368.656L1638.57 374.692ZM1638.57 373.6L1643.51 368.656L1638.57 363.7L1633.62 368.656L1638.57 373.6Z" fill="#F4DDFB"/>
<path d="M6.66 434.692L0.612 428.656L6.66 422.608L12.696 428.656L6.66 434.692ZM6.66 433.6L11.604 428.656L6.66 423.7L1.716 428.656L6.66 433.6ZM132.191 434.692L126.143 428.656L132.191 422.608L138.227 428.656L132.191 434.692ZM132.191 433.6L137.135 428.656L132.191 423.7L127.247 428.656L132.191 433.6ZM257.723 434.692L251.675 428.656L257.723 422.608L263.759 428.656L257.723 434.692ZM257.723 433.6L262.667 428.656L257.723 423.7L252.779 428.656L257.723 433.6ZM383.254 434.692L377.206 428.656L383.254 422.608L389.29 428.656L383.254 434.692ZM383.254 433.6L388.198 428.656L383.254 423.7L378.31 428.656L383.254 433.6ZM508.785 434.692L502.737 428.656L508.785 422.608L514.821 428.656L508.785 434.692ZM508.785 433.6L513.729 428.656L508.785 423.7L503.841 428.656L508.785 433.6ZM634.316 434.692L628.268 428.656L634.316 422.608L640.352 428.656L634.316 434.692ZM634.316 433.6L639.26 428.656L634.316 423.7L629.372 428.656L634.316 433.6ZM759.848 434.692L753.8 428.656L759.848 422.608L765.884 428.656L759.848 434.692ZM759.848 433.6L764.792 428.656L759.848 423.7L754.904 428.656L759.848 433.6ZM885.379 434.692L879.331 428.656L885.379 422.608L891.415 428.656L885.379 434.692ZM885.379 433.6L890.323 428.656L885.379 423.7L880.435 428.656L885.379 433.6ZM1010.91 434.692L1004.86 428.656L1010.91 422.608L1016.95 428.656L1010.91 434.692ZM1010.91 433.6L1015.85 428.656L1010.91 423.7L1005.97 428.656L1010.91 433.6ZM1136.44 434.692L1130.39 428.656L1136.44 422.608L1142.48 428.656L1136.44 434.692ZM1136.44 433.6L1141.39 428.656L1136.44 423.7L1131.5 428.656L1136.44 433.6ZM1261.97 434.692L1255.92 428.656L1261.97 422.608L1268.01 428.656L1261.97 434.692ZM1261.97 433.6L1266.92 428.656L1261.97 423.7L1257.03 428.656L1261.97 433.6ZM1387.5 434.692L1381.46 428.656L1387.5 422.608L1393.54 428.656L1387.5 434.692ZM1387.5 433.6L1392.45 428.656L1387.5 423.7L1382.56 428.656L1387.5 433.6ZM1513.04 434.692L1506.99 428.656L1513.04 422.608L1519.07 428.656L1513.04 434.692ZM1513.04 433.6L1517.98 428.656L1513.04 423.7L1508.09 428.656L1513.04 433.6ZM1638.57 434.692L1632.52 428.656L1638.57 422.608L1644.6 428.656L1638.57 434.692ZM1638.57 433.6L1643.51 428.656L1638.57 423.7L1633.62 428.656L1638.57 433.6Z" fill="#F4DDFB"/>
<path d="M66.66 524.692L60.612 518.656L66.66 512.608L72.696 518.656L66.66 524.692ZM66.66 523.6L71.604 518.656L66.66 513.7L61.716 518.656L66.66 523.6ZM192.191 524.692L186.143 518.656L192.191 512.608L198.227 518.656L192.191 524.692ZM192.191 523.6L197.135 518.656L192.191 513.7L187.247 518.656L192.191 523.6ZM317.723 524.692L311.675 518.656L317.723 512.608L323.759 518.656L317.723 524.692ZM317.723 523.6L322.667 518.656L317.723 513.7L312.779 518.656L317.723 523.6ZM443.254 524.692L437.206 518.656L443.254 512.608L449.29 518.656L443.254 524.692ZM443.254 523.6L448.198 518.656L443.254 513.7L438.31 518.656L443.254 523.6ZM568.785 524.692L562.737 518.656L568.785 512.608L574.821 518.656L568.785 524.692ZM568.785 523.6L573.729 518.656L568.785 513.7L563.841 518.656L568.785 523.6ZM694.316 524.692L688.268 518.656L694.316 512.608L700.352 518.656L694.316 524.692ZM694.316 523.6L699.26 518.656L694.316 513.7L689.372 518.656L694.316 523.6ZM819.848 524.692L813.8 518.656L819.848 512.608L825.884 518.656L819.848 524.692ZM819.848 523.6L824.792 518.656L819.848 513.7L814.904 518.656L819.848 523.6ZM945.379 524.692L939.331 518.656L945.379 512.608L951.415 518.656L945.379 524.692ZM945.379 523.6L950.323 518.656L945.379 513.7L940.435 518.656L945.379 523.6ZM1070.91 524.692L1064.86 518.656L1070.91 512.608L1076.95 518.656L1070.91 524.692ZM1070.91 523.6L1075.85 518.656L1070.91 513.7L1065.97 518.656L1070.91 523.6ZM1196.44 524.692L1190.39 518.656L1196.44 512.608L1202.48 518.656L1196.44 524.692ZM1196.44 523.6L1201.39 518.656L1196.44 513.7L1191.5 518.656L1196.44 523.6ZM1321.97 524.692L1315.92 518.656L1321.97 512.608L1328.01 518.656L1321.97 524.692ZM1321.97 523.6L1326.92 518.656L1321.97 513.7L1317.03 518.656L1321.97 523.6ZM1447.5 524.692L1441.46 518.656L1447.5 512.608L1453.54 518.656L1447.5 524.692ZM1447.5 523.6L1452.45 518.656L1447.5 513.7L1442.56 518.656L1447.5 523.6ZM1573.04 524.692L1566.99 518.656L1573.04 512.608L1579.07 518.656L1573.04 524.692ZM1573.04 523.6L1577.98 518.656L1573.04 513.7L1568.09 518.656L1573.04 523.6ZM1698.57 524.692L1692.52 518.656L1698.57 512.608L1704.6 518.656L1698.57 524.692ZM1698.57 523.6L1703.51 518.656L1698.57 513.7L1693.62 518.656L1698.57 523.6Z" fill="#F4DDFB"/>
<path d="M66.66 584.692L60.612 578.656L66.66 572.608L72.696 578.656L66.66 584.692ZM66.66 583.6L71.604 578.656L66.66 573.7L61.716 578.656L66.66 583.6ZM192.191 584.692L186.143 578.656L192.191 572.608L198.227 578.656L192.191 584.692ZM192.191 583.6L197.135 578.656L192.191 573.7L187.247 578.656L192.191 583.6ZM317.723 584.692L311.675 578.656L317.723 572.608L323.759 578.656L317.723 584.692ZM317.723 583.6L322.667 578.656L317.723 573.7L312.779 578.656L317.723 583.6ZM443.254 584.692L437.206 578.656L443.254 572.608L449.29 578.656L443.254 584.692ZM443.254 583.6L448.198 578.656L443.254 573.7L438.31 578.656L443.254 583.6ZM568.785 584.692L562.737 578.656L568.785 572.608L574.821 578.656L568.785 584.692ZM568.785 583.6L573.729 578.656L568.785 573.7L563.841 578.656L568.785 583.6ZM694.316 584.692L688.268 578.656L694.316 572.608L700.352 578.656L694.316 584.692ZM694.316 583.6L699.26 578.656L694.316 573.7L689.372 578.656L694.316 583.6ZM819.848 584.692L813.8 578.656L819.848 572.608L825.884 578.656L819.848 584.692ZM819.848 583.6L824.792 578.656L819.848 573.7L814.904 578.656L819.848 583.6ZM945.379 584.692L939.331 578.656L945.379 572.608L951.415 578.656L945.379 584.692ZM945.379 583.6L950.323 578.656L945.379 573.7L940.435 578.656L945.379 583.6ZM1070.91 584.692L1064.86 578.656L1070.91 572.608L1076.95 578.656L1070.91 584.692ZM1070.91 583.6L1075.85 578.656L1070.91 573.7L1065.97 578.656L1070.91 583.6ZM1196.44 584.692L1190.39 578.656L1196.44 572.608L1202.48 578.656L1196.44 584.692ZM1196.44 583.6L1201.39 578.656L1196.44 573.7L1191.5 578.656L1196.44 583.6ZM1321.97 584.692L1315.92 578.656L1321.97 572.608L1328.01 578.656L1321.97 584.692ZM1321.97 583.6L1326.92 578.656L1321.97 573.7L1317.03 578.656L1321.97 583.6ZM1447.5 584.692L1441.46 578.656L1447.5 572.608L1453.54 578.656L1447.5 584.692ZM1447.5 583.6L1452.45 578.656L1447.5 573.7L1442.56 578.656L1447.5 583.6ZM1573.04 584.692L1566.99 578.656L1573.04 572.608L1579.07 578.656L1573.04 584.692ZM1573.04 583.6L1577.98 578.656L1573.04 573.7L1568.09 578.656L1573.04 583.6ZM1698.57 584.692L1692.52 578.656L1698.57 572.608L1704.6 578.656L1698.57 584.692ZM1698.57 583.6L1703.51 578.656L1698.57 573.7L1693.62 578.656L1698.57 583.6Z" fill="#F4DDFB"/>
<path d="M6.66 494.692L0.612 488.656L6.66 482.608L12.696 488.656L6.66 494.692ZM6.66 493.6L11.604 488.656L6.66 483.7L1.716 488.656L6.66 493.6ZM132.191 494.692L126.143 488.656L132.191 482.608L138.227 488.656L132.191 494.692ZM132.191 493.6L137.135 488.656L132.191 483.7L127.247 488.656L132.191 493.6ZM257.723 494.692L251.675 488.656L257.723 482.608L263.759 488.656L257.723 494.692ZM257.723 493.6L262.667 488.656L257.723 483.7L252.779 488.656L257.723 493.6ZM383.254 494.692L377.206 488.656L383.254 482.608L389.29 488.656L383.254 494.692ZM383.254 493.6L388.198 488.656L383.254 483.7L378.31 488.656L383.254 493.6ZM508.785 494.692L502.737 488.656L508.785 482.608L514.821 488.656L508.785 494.692ZM508.785 493.6L513.729 488.656L508.785 483.7L503.841 488.656L508.785 493.6ZM634.316 494.692L628.268 488.656L634.316 482.608L640.352 488.656L634.316 494.692ZM634.316 493.6L639.26 488.656L634.316 483.7L629.372 488.656L634.316 493.6ZM759.848 494.692L753.8 488.656L759.848 482.608L765.884 488.656L759.848 494.692ZM759.848 493.6L764.792 488.656L759.848 483.7L754.904 488.656L759.848 493.6ZM885.379 494.692L879.331 488.656L885.379 482.608L891.415 488.656L885.379 494.692ZM885.379 493.6L890.323 488.656L885.379 483.7L880.435 488.656L885.379 493.6ZM1010.91 494.692L1004.86 488.656L1010.91 482.608L1016.95 488.656L1010.91 494.692ZM1010.91 493.6L1015.85 488.656L1010.91 483.7L1005.97 488.656L1010.91 493.6ZM1136.44 494.692L1130.39 488.656L1136.44 482.608L1142.48 488.656L1136.44 494.692ZM1136.44 493.6L1141.39 488.656L1136.44 483.7L1131.5 488.656L1136.44 493.6ZM1261.97 494.692L1255.92 488.656L1261.97 482.608L1268.01 488.656L1261.97 494.692ZM1261.97 493.6L1266.92 488.656L1261.97 483.7L1257.03 488.656L1261.97 493.6ZM1387.5 494.692L1381.46 488.656L1387.5 482.608L1393.54 488.656L1387.5 494.692ZM1387.5 493.6L1392.45 488.656L1387.5 483.7L1382.56 488.656L1387.5 493.6ZM1513.04 494.692L1506.99 488.656L1513.04 482.608L1519.07 488.656L1513.04 494.692ZM1513.04 493.6L1517.98 488.656L1513.04 483.7L1508.09 488.656L1513.04 493.6ZM1638.57 494.692L1632.52 488.656L1638.57 482.608L1644.6 488.656L1638.57 494.692ZM1638.57 493.6L1643.51 488.656L1638.57 483.7L1633.62 488.656L1638.57 493.6Z" fill="#F4DDFB"/>
<path d="M6.66 554.692L0.612 548.656L6.66 542.608L12.696 548.656L6.66 554.692ZM6.66 553.6L11.604 548.656L6.66 543.7L1.716 548.656L6.66 553.6ZM132.191 554.692L126.143 548.656L132.191 542.608L138.227 548.656L132.191 554.692ZM132.191 553.6L137.135 548.656L132.191 543.7L127.247 548.656L132.191 553.6ZM257.723 554.692L251.675 548.656L257.723 542.608L263.759 548.656L257.723 554.692ZM257.723 553.6L262.667 548.656L257.723 543.7L252.779 548.656L257.723 553.6ZM383.254 554.692L377.206 548.656L383.254 542.608L389.29 548.656L383.254 554.692ZM383.254 553.6L388.198 548.656L383.254 543.7L378.31 548.656L383.254 553.6ZM508.785 554.692L502.737 548.656L508.785 542.608L514.821 548.656L508.785 554.692ZM508.785 553.6L513.729 548.656L508.785 543.7L503.841 548.656L508.785 553.6ZM634.316 554.692L628.268 548.656L634.316 542.608L640.352 548.656L634.316 554.692ZM634.316 553.6L639.26 548.656L634.316 543.7L629.372 548.656L634.316 553.6ZM759.848 554.692L753.8 548.656L759.848 542.608L765.884 548.656L759.848 554.692ZM759.848 553.6L764.792 548.656L759.848 543.7L754.904 548.656L759.848 553.6ZM885.379 554.692L879.331 548.656L885.379 542.608L891.415 548.656L885.379 554.692ZM885.379 553.6L890.323 548.656L885.379 543.7L880.435 548.656L885.379 553.6ZM1010.91 554.692L1004.86 548.656L1010.91 542.608L1016.95 548.656L1010.91 554.692ZM1010.91 553.6L1015.85 548.656L1010.91 543.7L1005.97 548.656L1010.91 553.6ZM1136.44 554.692L1130.39 548.656L1136.44 542.608L1142.48 548.656L1136.44 554.692ZM1136.44 553.6L1141.39 548.656L1136.44 543.7L1131.5 548.656L1136.44 553.6ZM1261.97 554.692L1255.92 548.656L1261.97 542.608L1268.01 548.656L1261.97 554.692ZM1261.97 553.6L1266.92 548.656L1261.97 543.7L1257.03 548.656L1261.97 553.6ZM1387.5 554.692L1381.46 548.656L1387.5 542.608L1393.54 548.656L1387.5 554.692ZM1387.5 553.6L1392.45 548.656L1387.5 543.7L1382.56 548.656L1387.5 553.6ZM1513.04 554.692L1506.99 548.656L1513.04 542.608L1519.07 548.656L1513.04 554.692ZM1513.04 553.6L1517.98 548.656L1513.04 543.7L1508.09 548.656L1513.04 553.6ZM1638.57 554.692L1632.52 548.656L1638.57 542.608L1644.6 548.656L1638.57 554.692ZM1638.57 553.6L1643.51 548.656L1638.57 543.7L1633.62 548.656L1638.57 553.6Z" fill="#F4DDFB"/>
<path d="M66.66 644.692L60.612 638.656L66.66 632.608L72.696 638.656L66.66 644.692ZM66.66 643.6L71.604 638.656L66.66 633.7L61.716 638.656L66.66 643.6ZM192.191 644.692L186.143 638.656L192.191 632.608L198.227 638.656L192.191 644.692ZM192.191 643.6L197.135 638.656L192.191 633.7L187.247 638.656L192.191 643.6ZM317.723 644.692L311.675 638.656L317.723 632.608L323.759 638.656L317.723 644.692ZM317.723 643.6L322.667 638.656L317.723 633.7L312.779 638.656L317.723 643.6ZM443.254 644.692L437.206 638.656L443.254 632.608L449.29 638.656L443.254 644.692ZM443.254 643.6L448.198 638.656L443.254 633.7L438.31 638.656L443.254 643.6ZM568.785 644.692L562.737 638.656L568.785 632.608L574.821 638.656L568.785 644.692ZM568.785 643.6L573.729 638.656L568.785 633.7L563.841 638.656L568.785 643.6ZM694.316 644.692L688.268 638.656L694.316 632.608L700.352 638.656L694.316 644.692ZM694.316 643.6L699.26 638.656L694.316 633.7L689.372 638.656L694.316 643.6ZM819.848 644.692L813.8 638.656L819.848 632.608L825.884 638.656L819.848 644.692ZM819.848 643.6L824.792 638.656L819.848 633.7L814.904 638.656L819.848 643.6ZM945.379 644.692L939.331 638.656L945.379 632.608L951.415 638.656L945.379 644.692ZM945.379 643.6L950.323 638.656L945.379 633.7L940.435 638.656L945.379 643.6ZM1070.91 644.692L1064.86 638.656L1070.91 632.608L1076.95 638.656L1070.91 644.692ZM1070.91 643.6L1075.85 638.656L1070.91 633.7L1065.97 638.656L1070.91 643.6ZM1196.44 644.692L1190.39 638.656L1196.44 632.608L1202.48 638.656L1196.44 644.692ZM1196.44 643.6L1201.39 638.656L1196.44 633.7L1191.5 638.656L1196.44 643.6ZM1321.97 644.692L1315.92 638.656L1321.97 632.608L1328.01 638.656L1321.97 644.692ZM1321.97 643.6L1326.92 638.656L1321.97 633.7L1317.03 638.656L1321.97 643.6ZM1447.5 644.692L1441.46 638.656L1447.5 632.608L1453.54 638.656L1447.5 644.692ZM1447.5 643.6L1452.45 638.656L1447.5 633.7L1442.56 638.656L1447.5 643.6ZM1573.04 644.692L1566.99 638.656L1573.04 632.608L1579.07 638.656L1573.04 644.692ZM1573.04 643.6L1577.98 638.656L1573.04 633.7L1568.09 638.656L1573.04 643.6ZM1698.57 644.692L1692.52 638.656L1698.57 632.608L1704.6 638.656L1698.57 644.692ZM1698.57 643.6L1703.51 638.656L1698.57 633.7L1693.62 638.656L1698.57 643.6Z" fill="#F4DDFB"/>
<path d="M66.66 704.692L60.612 698.656L66.66 692.608L72.696 698.656L66.66 704.692ZM66.66 703.6L71.604 698.656L66.66 693.7L61.716 698.656L66.66 703.6ZM192.191 704.692L186.143 698.656L192.191 692.608L198.227 698.656L192.191 704.692ZM192.191 703.6L197.135 698.656L192.191 693.7L187.247 698.656L192.191 703.6ZM317.723 704.692L311.675 698.656L317.723 692.608L323.759 698.656L317.723 704.692ZM317.723 703.6L322.667 698.656L317.723 693.7L312.779 698.656L317.723 703.6ZM443.254 704.692L437.206 698.656L443.254 692.608L449.29 698.656L443.254 704.692ZM443.254 703.6L448.198 698.656L443.254 693.7L438.31 698.656L443.254 703.6ZM568.785 704.692L562.737 698.656L568.785 692.608L574.821 698.656L568.785 704.692ZM568.785 703.6L573.729 698.656L568.785 693.7L563.841 698.656L568.785 703.6ZM694.316 704.692L688.268 698.656L694.316 692.608L700.352 698.656L694.316 704.692ZM694.316 703.6L699.26 698.656L694.316 693.7L689.372 698.656L694.316 703.6ZM819.848 704.692L813.8 698.656L819.848 692.608L825.884 698.656L819.848 704.692ZM819.848 703.6L824.792 698.656L819.848 693.7L814.904 698.656L819.848 703.6ZM945.379 704.692L939.331 698.656L945.379 692.608L951.415 698.656L945.379 704.692ZM945.379 703.6L950.323 698.656L945.379 693.7L940.435 698.656L945.379 703.6ZM1070.91 704.692L1064.86 698.656L1070.91 692.608L1076.95 698.656L1070.91 704.692ZM1070.91 703.6L1075.85 698.656L1070.91 693.7L1065.97 698.656L1070.91 703.6ZM1196.44 704.692L1190.39 698.656L1196.44 692.608L1202.48 698.656L1196.44 704.692ZM1196.44 703.6L1201.39 698.656L1196.44 693.7L1191.5 698.656L1196.44 703.6ZM1321.97 704.692L1315.92 698.656L1321.97 692.608L1328.01 698.656L1321.97 704.692ZM1321.97 703.6L1326.92 698.656L1321.97 693.7L1317.03 698.656L1321.97 703.6ZM1447.5 704.692L1441.46 698.656L1447.5 692.608L1453.54 698.656L1447.5 704.692ZM1447.5 703.6L1452.45 698.656L1447.5 693.7L1442.56 698.656L1447.5 703.6ZM1573.04 704.692L1566.99 698.656L1573.04 692.608L1579.07 698.656L1573.04 704.692ZM1573.04 703.6L1577.98 698.656L1573.04 693.7L1568.09 698.656L1573.04 703.6ZM1698.57 704.692L1692.52 698.656L1698.57 692.608L1704.6 698.656L1698.57 704.692ZM1698.57 703.6L1703.51 698.656L1698.57 693.7L1693.62 698.656L1698.57 703.6Z" fill="#F4DDFB"/>
<path d="M6.66 614.692L0.612 608.656L6.66 602.608L12.696 608.656L6.66 614.692ZM6.66 613.6L11.604 608.656L6.66 603.7L1.716 608.656L6.66 613.6ZM132.191 614.692L126.143 608.656L132.191 602.608L138.227 608.656L132.191 614.692ZM132.191 613.6L137.135 608.656L132.191 603.7L127.247 608.656L132.191 613.6ZM257.723 614.692L251.675 608.656L257.723 602.608L263.759 608.656L257.723 614.692ZM257.723 613.6L262.667 608.656L257.723 603.7L252.779 608.656L257.723 613.6ZM383.254 614.692L377.206 608.656L383.254 602.608L389.29 608.656L383.254 614.692ZM383.254 613.6L388.198 608.656L383.254 603.7L378.31 608.656L383.254 613.6ZM508.785 614.692L502.737 608.656L508.785 602.608L514.821 608.656L508.785 614.692ZM508.785 613.6L513.729 608.656L508.785 603.7L503.841 608.656L508.785 613.6ZM634.316 614.692L628.268 608.656L634.316 602.608L640.352 608.656L634.316 614.692ZM634.316 613.6L639.26 608.656L634.316 603.7L629.372 608.656L634.316 613.6ZM759.848 614.692L753.8 608.656L759.848 602.608L765.884 608.656L759.848 614.692ZM759.848 613.6L764.792 608.656L759.848 603.7L754.904 608.656L759.848 613.6ZM885.379 614.692L879.331 608.656L885.379 602.608L891.415 608.656L885.379 614.692ZM885.379 613.6L890.323 608.656L885.379 603.7L880.435 608.656L885.379 613.6ZM1010.91 614.692L1004.86 608.656L1010.91 602.608L1016.95 608.656L1010.91 614.692ZM1010.91 613.6L1015.85 608.656L1010.91 603.7L1005.97 608.656L1010.91 613.6ZM1136.44 614.692L1130.39 608.656L1136.44 602.608L1142.48 608.656L1136.44 614.692ZM1136.44 613.6L1141.39 608.656L1136.44 603.7L1131.5 608.656L1136.44 613.6ZM1261.97 614.692L1255.92 608.656L1261.97 602.608L1268.01 608.656L1261.97 614.692ZM1261.97 613.6L1266.92 608.656L1261.97 603.7L1257.03 608.656L1261.97 613.6ZM1387.5 614.692L1381.46 608.656L1387.5 602.608L1393.54 608.656L1387.5 614.692ZM1387.5 613.6L1392.45 608.656L1387.5 603.7L1382.56 608.656L1387.5 613.6ZM1513.04 614.692L1506.99 608.656L1513.04 602.608L1519.07 608.656L1513.04 614.692ZM1513.04 613.6L1517.98 608.656L1513.04 603.7L1508.09 608.656L1513.04 613.6ZM1638.57 614.692L1632.52 608.656L1638.57 602.608L1644.6 608.656L1638.57 614.692ZM1638.57 613.6L1643.51 608.656L1638.57 603.7L1633.62 608.656L1638.57 613.6Z" fill="#F4DDFB"/>
<path d="M6.66 674.692L0.612 668.656L6.66 662.608L12.696 668.656L6.66 674.692ZM6.66 673.6L11.604 668.656L6.66 663.7L1.716 668.656L6.66 673.6ZM132.191 674.692L126.143 668.656L132.191 662.608L138.227 668.656L132.191 674.692ZM132.191 673.6L137.135 668.656L132.191 663.7L127.247 668.656L132.191 673.6ZM257.723 674.692L251.675 668.656L257.723 662.608L263.759 668.656L257.723 674.692ZM257.723 673.6L262.667 668.656L257.723 663.7L252.779 668.656L257.723 673.6ZM383.254 674.692L377.206 668.656L383.254 662.608L389.29 668.656L383.254 674.692ZM383.254 673.6L388.198 668.656L383.254 663.7L378.31 668.656L383.254 673.6ZM508.785 674.692L502.737 668.656L508.785 662.608L514.821 668.656L508.785 674.692ZM508.785 673.6L513.729 668.656L508.785 663.7L503.841 668.656L508.785 673.6ZM634.316 674.692L628.268 668.656L634.316 662.608L640.352 668.656L634.316 674.692ZM634.316 673.6L639.26 668.656L634.316 663.7L629.372 668.656L634.316 673.6ZM759.848 674.692L753.8 668.656L759.848 662.608L765.884 668.656L759.848 674.692ZM759.848 673.6L764.792 668.656L759.848 663.7L754.904 668.656L759.848 673.6ZM885.379 674.692L879.331 668.656L885.379 662.608L891.415 668.656L885.379 674.692ZM885.379 673.6L890.323 668.656L885.379 663.7L880.435 668.656L885.379 673.6ZM1010.91 674.692L1004.86 668.656L1010.91 662.608L1016.95 668.656L1010.91 674.692ZM1010.91 673.6L1015.85 668.656L1010.91 663.7L1005.97 668.656L1010.91 673.6ZM1136.44 674.692L1130.39 668.656L1136.44 662.608L1142.48 668.656L1136.44 674.692ZM1136.44 673.6L1141.39 668.656L1136.44 663.7L1131.5 668.656L1136.44 673.6ZM1261.97 674.692L1255.92 668.656L1261.97 662.608L1268.01 668.656L1261.97 674.692ZM1261.97 673.6L1266.92 668.656L1261.97 663.7L1257.03 668.656L1261.97 673.6ZM1387.5 674.692L1381.46 668.656L1387.5 662.608L1393.54 668.656L1387.5 674.692ZM1387.5 673.6L1392.45 668.656L1387.5 663.7L1382.56 668.656L1387.5 673.6ZM1513.04 674.692L1506.99 668.656L1513.04 662.608L1519.07 668.656L1513.04 674.692ZM1513.04 673.6L1517.98 668.656L1513.04 663.7L1508.09 668.656L1513.04 673.6ZM1638.57 674.692L1632.52 668.656L1638.57 662.608L1644.6 668.656L1638.57 674.692ZM1638.57 673.6L1643.51 668.656L1638.57 663.7L1633.62 668.656L1638.57 673.6Z" fill="#F4DDFB"/>
<path d="M66.66 764.692L60.612 758.656L66.66 752.608L72.696 758.656L66.66 764.692ZM66.66 763.6L71.604 758.656L66.66 753.7L61.716 758.656L66.66 763.6ZM192.191 764.692L186.143 758.656L192.191 752.608L198.227 758.656L192.191 764.692ZM192.191 763.6L197.135 758.656L192.191 753.7L187.247 758.656L192.191 763.6ZM317.723 764.692L311.675 758.656L317.723 752.608L323.759 758.656L317.723 764.692ZM317.723 763.6L322.667 758.656L317.723 753.7L312.779 758.656L317.723 763.6ZM443.254 764.692L437.206 758.656L443.254 752.608L449.29 758.656L443.254 764.692ZM443.254 763.6L448.198 758.656L443.254 753.7L438.31 758.656L443.254 763.6ZM568.785 764.692L562.737 758.656L568.785 752.608L574.821 758.656L568.785 764.692ZM568.785 763.6L573.729 758.656L568.785 753.7L563.841 758.656L568.785 763.6ZM694.316 764.692L688.268 758.656L694.316 752.608L700.352 758.656L694.316 764.692ZM694.316 763.6L699.26 758.656L694.316 753.7L689.372 758.656L694.316 763.6ZM819.848 764.692L813.8 758.656L819.848 752.608L825.884 758.656L819.848 764.692ZM819.848 763.6L824.792 758.656L819.848 753.7L814.904 758.656L819.848 763.6ZM945.379 764.692L939.331 758.656L945.379 752.608L951.415 758.656L945.379 764.692ZM945.379 763.6L950.323 758.656L945.379 753.7L940.435 758.656L945.379 763.6ZM1070.91 764.692L1064.86 758.656L1070.91 752.608L1076.95 758.656L1070.91 764.692ZM1070.91 763.6L1075.85 758.656L1070.91 753.7L1065.97 758.656L1070.91 763.6ZM1196.44 764.692L1190.39 758.656L1196.44 752.608L1202.48 758.656L1196.44 764.692ZM1196.44 763.6L1201.39 758.656L1196.44 753.7L1191.5 758.656L1196.44 763.6ZM1321.97 764.692L1315.92 758.656L1321.97 752.608L1328.01 758.656L1321.97 764.692ZM1321.97 763.6L1326.92 758.656L1321.97 753.7L1317.03 758.656L1321.97 763.6ZM1447.5 764.692L1441.46 758.656L1447.5 752.608L1453.54 758.656L1447.5 764.692ZM1447.5 763.6L1452.45 758.656L1447.5 753.7L1442.56 758.656L1447.5 763.6ZM1573.04 764.692L1566.99 758.656L1573.04 752.608L1579.07 758.656L1573.04 764.692ZM1573.04 763.6L1577.98 758.656L1573.04 753.7L1568.09 758.656L1573.04 763.6ZM1698.57 764.692L1692.52 758.656L1698.57 752.608L1704.6 758.656L1698.57 764.692ZM1698.57 763.6L1703.51 758.656L1698.57 753.7L1693.62 758.656L1698.57 763.6Z" fill="#F4DDFB"/>
<path d="M66.66 824.692L60.612 818.656L66.66 812.608L72.696 818.656L66.66 824.692ZM66.66 823.6L71.604 818.656L66.66 813.7L61.716 818.656L66.66 823.6ZM192.191 824.692L186.143 818.656L192.191 812.608L198.227 818.656L192.191 824.692ZM192.191 823.6L197.135 818.656L192.191 813.7L187.247 818.656L192.191 823.6ZM317.723 824.692L311.675 818.656L317.723 812.608L323.759 818.656L317.723 824.692ZM317.723 823.6L322.667 818.656L317.723 813.7L312.779 818.656L317.723 823.6ZM443.254 824.692L437.206 818.656L443.254 812.608L449.29 818.656L443.254 824.692ZM443.254 823.6L448.198 818.656L443.254 813.7L438.31 818.656L443.254 823.6ZM568.785 824.692L562.737 818.656L568.785 812.608L574.821 818.656L568.785 824.692ZM568.785 823.6L573.729 818.656L568.785 813.7L563.841 818.656L568.785 823.6ZM694.316 824.692L688.268 818.656L694.316 812.608L700.352 818.656L694.316 824.692ZM694.316 823.6L699.26 818.656L694.316 813.7L689.372 818.656L694.316 823.6ZM819.848 824.692L813.8 818.656L819.848 812.608L825.884 818.656L819.848 824.692ZM819.848 823.6L824.792 818.656L819.848 813.7L814.904 818.656L819.848 823.6ZM945.379 824.692L939.331 818.656L945.379 812.608L951.415 818.656L945.379 824.692ZM945.379 823.6L950.323 818.656L945.379 813.7L940.435 818.656L945.379 823.6ZM1070.91 824.692L1064.86 818.656L1070.91 812.608L1076.95 818.656L1070.91 824.692ZM1070.91 823.6L1075.85 818.656L1070.91 813.7L1065.97 818.656L1070.91 823.6ZM1196.44 824.692L1190.39 818.656L1196.44 812.608L1202.48 818.656L1196.44 824.692ZM1196.44 823.6L1201.39 818.656L1196.44 813.7L1191.5 818.656L1196.44 823.6ZM1321.97 824.692L1315.92 818.656L1321.97 812.608L1328.01 818.656L1321.97 824.692ZM1321.97 823.6L1326.92 818.656L1321.97 813.7L1317.03 818.656L1321.97 823.6ZM1447.5 824.692L1441.46 818.656L1447.5 812.608L1453.54 818.656L1447.5 824.692ZM1447.5 823.6L1452.45 818.656L1447.5 813.7L1442.56 818.656L1447.5 823.6ZM1573.04 824.692L1566.99 818.656L1573.04 812.608L1579.07 818.656L1573.04 824.692ZM1573.04 823.6L1577.98 818.656L1573.04 813.7L1568.09 818.656L1573.04 823.6ZM1698.57 824.692L1692.52 818.656L1698.57 812.608L1704.6 818.656L1698.57 824.692ZM1698.57 823.6L1703.51 818.656L1698.57 813.7L1693.62 818.656L1698.57 823.6Z" fill="#F4DDFB"/>
<path d="M6.66 734.692L0.612 728.656L6.66 722.608L12.696 728.656L6.66 734.692ZM6.66 733.6L11.604 728.656L6.66 723.7L1.716 728.656L6.66 733.6ZM132.191 734.692L126.143 728.656L132.191 722.608L138.227 728.656L132.191 734.692ZM132.191 733.6L137.135 728.656L132.191 723.7L127.247 728.656L132.191 733.6ZM257.723 734.692L251.675 728.656L257.723 722.608L263.759 728.656L257.723 734.692ZM257.723 733.6L262.667 728.656L257.723 723.7L252.779 728.656L257.723 733.6ZM383.254 734.692L377.206 728.656L383.254 722.608L389.29 728.656L383.254 734.692ZM383.254 733.6L388.198 728.656L383.254 723.7L378.31 728.656L383.254 733.6ZM508.785 734.692L502.737 728.656L508.785 722.608L514.821 728.656L508.785 734.692ZM508.785 733.6L513.729 728.656L508.785 723.7L503.841 728.656L508.785 733.6ZM634.316 734.692L628.268 728.656L634.316 722.608L640.352 728.656L634.316 734.692ZM634.316 733.6L639.26 728.656L634.316 723.7L629.372 728.656L634.316 733.6ZM759.848 734.692L753.8 728.656L759.848 722.608L765.884 728.656L759.848 734.692ZM759.848 733.6L764.792 728.656L759.848 723.7L754.904 728.656L759.848 733.6ZM885.379 734.692L879.331 728.656L885.379 722.608L891.415 728.656L885.379 734.692ZM885.379 733.6L890.323 728.656L885.379 723.7L880.435 728.656L885.379 733.6ZM1010.91 734.692L1004.86 728.656L1010.91 722.608L1016.95 728.656L1010.91 734.692ZM1010.91 733.6L1015.85 728.656L1010.91 723.7L1005.97 728.656L1010.91 733.6ZM1136.44 734.692L1130.39 728.656L1136.44 722.608L1142.48 728.656L1136.44 734.692ZM1136.44 733.6L1141.39 728.656L1136.44 723.7L1131.5 728.656L1136.44 733.6ZM1261.97 734.692L1255.92 728.656L1261.97 722.608L1268.01 728.656L1261.97 734.692ZM1261.97 733.6L1266.92 728.656L1261.97 723.7L1257.03 728.656L1261.97 733.6ZM1387.5 734.692L1381.46 728.656L1387.5 722.608L1393.54 728.656L1387.5 734.692ZM1387.5 733.6L1392.45 728.656L1387.5 723.7L1382.56 728.656L1387.5 733.6ZM1513.04 734.692L1506.99 728.656L1513.04 722.608L1519.07 728.656L1513.04 734.692ZM1513.04 733.6L1517.98 728.656L1513.04 723.7L1508.09 728.656L1513.04 733.6ZM1638.57 734.692L1632.52 728.656L1638.57 722.608L1644.6 728.656L1638.57 734.692ZM1638.57 733.6L1643.51 728.656L1638.57 723.7L1633.62 728.656L1638.57 733.6Z" fill="#F4DDFB"/>
<path d="M6.66 794.692L0.612 788.656L6.66 782.608L12.696 788.656L6.66 794.692ZM6.66 793.6L11.604 788.656L6.66 783.7L1.716 788.656L6.66 793.6ZM132.191 794.692L126.143 788.656L132.191 782.608L138.227 788.656L132.191 794.692ZM132.191 793.6L137.135 788.656L132.191 783.7L127.247 788.656L132.191 793.6ZM257.723 794.692L251.675 788.656L257.723 782.608L263.759 788.656L257.723 794.692ZM257.723 793.6L262.667 788.656L257.723 783.7L252.779 788.656L257.723 793.6ZM383.254 794.692L377.206 788.656L383.254 782.608L389.29 788.656L383.254 794.692ZM383.254 793.6L388.198 788.656L383.254 783.7L378.31 788.656L383.254 793.6ZM508.785 794.692L502.737 788.656L508.785 782.608L514.821 788.656L508.785 794.692ZM508.785 793.6L513.729 788.656L508.785 783.7L503.841 788.656L508.785 793.6ZM634.316 794.692L628.268 788.656L634.316 782.608L640.352 788.656L634.316 794.692ZM634.316 793.6L639.26 788.656L634.316 783.7L629.372 788.656L634.316 793.6ZM759.848 794.692L753.8 788.656L759.848 782.608L765.884 788.656L759.848 794.692ZM759.848 793.6L764.792 788.656L759.848 783.7L754.904 788.656L759.848 793.6ZM885.379 794.692L879.331 788.656L885.379 782.608L891.415 788.656L885.379 794.692ZM885.379 793.6L890.323 788.656L885.379 783.7L880.435 788.656L885.379 793.6ZM1010.91 794.692L1004.86 788.656L1010.91 782.608L1016.95 788.656L1010.91 794.692ZM1010.91 793.6L1015.85 788.656L1010.91 783.7L1005.97 788.656L1010.91 793.6ZM1136.44 794.692L1130.39 788.656L1136.44 782.608L1142.48 788.656L1136.44 794.692ZM1136.44 793.6L1141.39 788.656L1136.44 783.7L1131.5 788.656L1136.44 793.6ZM1261.97 794.692L1255.92 788.656L1261.97 782.608L1268.01 788.656L1261.97 794.692ZM1261.97 793.6L1266.92 788.656L1261.97 783.7L1257.03 788.656L1261.97 793.6ZM1387.5 794.692L1381.46 788.656L1387.5 782.608L1393.54 788.656L1387.5 794.692ZM1387.5 793.6L1392.45 788.656L1387.5 783.7L1382.56 788.656L1387.5 793.6ZM1513.04 794.692L1506.99 788.656L1513.04 782.608L1519.07 788.656L1513.04 794.692ZM1513.04 793.6L1517.98 788.656L1513.04 783.7L1508.09 788.656L1513.04 793.6ZM1638.57 794.692L1632.52 788.656L1638.57 782.608L1644.6 788.656L1638.57 794.692ZM1638.57 793.6L1643.51 788.656L1638.57 783.7L1633.62 788.656L1638.57 793.6Z" fill="#F4DDFB"/>
<path d="M66.66 884.692L60.612 878.656L66.66 872.608L72.696 878.656L66.66 884.692ZM66.66 883.6L71.604 878.656L66.66 873.7L61.716 878.656L66.66 883.6ZM192.191 884.692L186.143 878.656L192.191 872.608L198.227 878.656L192.191 884.692ZM192.191 883.6L197.135 878.656L192.191 873.7L187.247 878.656L192.191 883.6ZM317.723 884.692L311.675 878.656L317.723 872.608L323.759 878.656L317.723 884.692ZM317.723 883.6L322.667 878.656L317.723 873.7L312.779 878.656L317.723 883.6ZM443.254 884.692L437.206 878.656L443.254 872.608L449.29 878.656L443.254 884.692ZM443.254 883.6L448.198 878.656L443.254 873.7L438.31 878.656L443.254 883.6ZM568.785 884.692L562.737 878.656L568.785 872.608L574.821 878.656L568.785 884.692ZM568.785 883.6L573.729 878.656L568.785 873.7L563.841 878.656L568.785 883.6ZM694.316 884.692L688.268 878.656L694.316 872.608L700.352 878.656L694.316 884.692ZM694.316 883.6L699.26 878.656L694.316 873.7L689.372 878.656L694.316 883.6ZM819.848 884.692L813.8 878.656L819.848 872.608L825.884 878.656L819.848 884.692ZM819.848 883.6L824.792 878.656L819.848 873.7L814.904 878.656L819.848 883.6ZM945.379 884.692L939.331 878.656L945.379 872.608L951.415 878.656L945.379 884.692ZM945.379 883.6L950.323 878.656L945.379 873.7L940.435 878.656L945.379 883.6ZM1070.91 884.692L1064.86 878.656L1070.91 872.608L1076.95 878.656L1070.91 884.692ZM1070.91 883.6L1075.85 878.656L1070.91 873.7L1065.97 878.656L1070.91 883.6ZM1196.44 884.692L1190.39 878.656L1196.44 872.608L1202.48 878.656L1196.44 884.692ZM1196.44 883.6L1201.39 878.656L1196.44 873.7L1191.5 878.656L1196.44 883.6ZM1321.97 884.692L1315.92 878.656L1321.97 872.608L1328.01 878.656L1321.97 884.692ZM1321.97 883.6L1326.92 878.656L1321.97 873.7L1317.03 878.656L1321.97 883.6ZM1447.5 884.692L1441.46 878.656L1447.5 872.608L1453.54 878.656L1447.5 884.692ZM1447.5 883.6L1452.45 878.656L1447.5 873.7L1442.56 878.656L1447.5 883.6ZM1573.04 884.692L1566.99 878.656L1573.04 872.608L1579.07 878.656L1573.04 884.692ZM1573.04 883.6L1577.98 878.656L1573.04 873.7L1568.09 878.656L1573.04 883.6ZM1698.57 884.692L1692.52 878.656L1698.57 872.608L1704.6 878.656L1698.57 884.692ZM1698.57 883.6L1703.51 878.656L1698.57 873.7L1693.62 878.656L1698.57 883.6Z" fill="#F4DDFB"/>
<path d="M66.66 944.692L60.612 938.656L66.66 932.608L72.696 938.656L66.66 944.692ZM66.66 943.6L71.604 938.656L66.66 933.7L61.716 938.656L66.66 943.6ZM192.191 944.692L186.143 938.656L192.191 932.608L198.227 938.656L192.191 944.692ZM192.191 943.6L197.135 938.656L192.191 933.7L187.247 938.656L192.191 943.6ZM317.723 944.692L311.675 938.656L317.723 932.608L323.759 938.656L317.723 944.692ZM317.723 943.6L322.667 938.656L317.723 933.7L312.779 938.656L317.723 943.6ZM443.254 944.692L437.206 938.656L443.254 932.608L449.29 938.656L443.254 944.692ZM443.254 943.6L448.198 938.656L443.254 933.7L438.31 938.656L443.254 943.6ZM568.785 944.692L562.737 938.656L568.785 932.608L574.821 938.656L568.785 944.692ZM568.785 943.6L573.729 938.656L568.785 933.7L563.841 938.656L568.785 943.6ZM694.316 944.692L688.268 938.656L694.316 932.608L700.352 938.656L694.316 944.692ZM694.316 943.6L699.26 938.656L694.316 933.7L689.372 938.656L694.316 943.6ZM819.848 944.692L813.8 938.656L819.848 932.608L825.884 938.656L819.848 944.692ZM819.848 943.6L824.792 938.656L819.848 933.7L814.904 938.656L819.848 943.6ZM945.379 944.692L939.331 938.656L945.379 932.608L951.415 938.656L945.379 944.692ZM945.379 943.6L950.323 938.656L945.379 933.7L940.435 938.656L945.379 943.6ZM1070.91 944.692L1064.86 938.656L1070.91 932.608L1076.95 938.656L1070.91 944.692ZM1070.91 943.6L1075.85 938.656L1070.91 933.7L1065.97 938.656L1070.91 943.6ZM1196.44 944.692L1190.39 938.656L1196.44 932.608L1202.48 938.656L1196.44 944.692ZM1196.44 943.6L1201.39 938.656L1196.44 933.7L1191.5 938.656L1196.44 943.6ZM1321.97 944.692L1315.92 938.656L1321.97 932.608L1328.01 938.656L1321.97 944.692ZM1321.97 943.6L1326.92 938.656L1321.97 933.7L1317.03 938.656L1321.97 943.6ZM1447.5 944.692L1441.46 938.656L1447.5 932.608L1453.54 938.656L1447.5 944.692ZM1447.5 943.6L1452.45 938.656L1447.5 933.7L1442.56 938.656L1447.5 943.6ZM1573.04 944.692L1566.99 938.656L1573.04 932.608L1579.07 938.656L1573.04 944.692ZM1573.04 943.6L1577.98 938.656L1573.04 933.7L1568.09 938.656L1573.04 943.6ZM1698.57 944.692L1692.52 938.656L1698.57 932.608L1704.6 938.656L1698.57 944.692ZM1698.57 943.6L1703.51 938.656L1698.57 933.7L1693.62 938.656L1698.57 943.6Z" fill="#F4DDFB"/>
<path d="M6.66 854.692L0.612 848.656L6.66 842.608L12.696 848.656L6.66 854.692ZM6.66 853.6L11.604 848.656L6.66 843.7L1.716 848.656L6.66 853.6ZM132.191 854.692L126.143 848.656L132.191 842.608L138.227 848.656L132.191 854.692ZM132.191 853.6L137.135 848.656L132.191 843.7L127.247 848.656L132.191 853.6ZM257.723 854.692L251.675 848.656L257.723 842.608L263.759 848.656L257.723 854.692ZM257.723 853.6L262.667 848.656L257.723 843.7L252.779 848.656L257.723 853.6ZM383.254 854.692L377.206 848.656L383.254 842.608L389.29 848.656L383.254 854.692ZM383.254 853.6L388.198 848.656L383.254 843.7L378.31 848.656L383.254 853.6ZM508.785 854.692L502.737 848.656L508.785 842.608L514.821 848.656L508.785 854.692ZM508.785 853.6L513.729 848.656L508.785 843.7L503.841 848.656L508.785 853.6ZM634.316 854.692L628.268 848.656L634.316 842.608L640.352 848.656L634.316 854.692ZM634.316 853.6L639.26 848.656L634.316 843.7L629.372 848.656L634.316 853.6ZM759.848 854.692L753.8 848.656L759.848 842.608L765.884 848.656L759.848 854.692ZM759.848 853.6L764.792 848.656L759.848 843.7L754.904 848.656L759.848 853.6ZM885.379 854.692L879.331 848.656L885.379 842.608L891.415 848.656L885.379 854.692ZM885.379 853.6L890.323 848.656L885.379 843.7L880.435 848.656L885.379 853.6ZM1010.91 854.692L1004.86 848.656L1010.91 842.608L1016.95 848.656L1010.91 854.692ZM1010.91 853.6L1015.85 848.656L1010.91 843.7L1005.97 848.656L1010.91 853.6ZM1136.44 854.692L1130.39 848.656L1136.44 842.608L1142.48 848.656L1136.44 854.692ZM1136.44 853.6L1141.39 848.656L1136.44 843.7L1131.5 848.656L1136.44 853.6ZM1261.97 854.692L1255.92 848.656L1261.97 842.608L1268.01 848.656L1261.97 854.692ZM1261.97 853.6L1266.92 848.656L1261.97 843.7L1257.03 848.656L1261.97 853.6ZM1387.5 854.692L1381.46 848.656L1387.5 842.608L1393.54 848.656L1387.5 854.692ZM1387.5 853.6L1392.45 848.656L1387.5 843.7L1382.56 848.656L1387.5 853.6ZM1513.04 854.692L1506.99 848.656L1513.04 842.608L1519.07 848.656L1513.04 854.692ZM1513.04 853.6L1517.98 848.656L1513.04 843.7L1508.09 848.656L1513.04 853.6ZM1638.57 854.692L1632.52 848.656L1638.57 842.608L1644.6 848.656L1638.57 854.692ZM1638.57 853.6L1643.51 848.656L1638.57 843.7L1633.62 848.656L1638.57 853.6Z" fill="#F4DDFB"/>
<path d="M6.66 914.692L0.612 908.656L6.66 902.608L12.696 908.656L6.66 914.692ZM6.66 913.6L11.604 908.656L6.66 903.7L1.716 908.656L6.66 913.6ZM132.191 914.692L126.143 908.656L132.191 902.608L138.227 908.656L132.191 914.692ZM132.191 913.6L137.135 908.656L132.191 903.7L127.247 908.656L132.191 913.6ZM257.723 914.692L251.675 908.656L257.723 902.608L263.759 908.656L257.723 914.692ZM257.723 913.6L262.667 908.656L257.723 903.7L252.779 908.656L257.723 913.6ZM383.254 914.692L377.206 908.656L383.254 902.608L389.29 908.656L383.254 914.692ZM383.254 913.6L388.198 908.656L383.254 903.7L378.31 908.656L383.254 913.6ZM508.785 914.692L502.737 908.656L508.785 902.608L514.821 908.656L508.785 914.692ZM508.785 913.6L513.729 908.656L508.785 903.7L503.841 908.656L508.785 913.6ZM634.316 914.692L628.268 908.656L634.316 902.608L640.352 908.656L634.316 914.692ZM634.316 913.6L639.26 908.656L634.316 903.7L629.372 908.656L634.316 913.6ZM759.848 914.692L753.8 908.656L759.848 902.608L765.884 908.656L759.848 914.692ZM759.848 913.6L764.792 908.656L759.848 903.7L754.904 908.656L759.848 913.6ZM885.379 914.692L879.331 908.656L885.379 902.608L891.415 908.656L885.379 914.692ZM885.379 913.6L890.323 908.656L885.379 903.7L880.435 908.656L885.379 913.6ZM1010.91 914.692L1004.86 908.656L1010.91 902.608L1016.95 908.656L1010.91 914.692ZM1010.91 913.6L1015.85 908.656L1010.91 903.7L1005.97 908.656L1010.91 913.6ZM1136.44 914.692L1130.39 908.656L1136.44 902.608L1142.48 908.656L1136.44 914.692ZM1136.44 913.6L1141.39 908.656L1136.44 903.7L1131.5 908.656L1136.44 913.6ZM1261.97 914.692L1255.92 908.656L1261.97 902.608L1268.01 908.656L1261.97 914.692ZM1261.97 913.6L1266.92 908.656L1261.97 903.7L1257.03 908.656L1261.97 913.6ZM1387.5 914.692L1381.46 908.656L1387.5 902.608L1393.54 908.656L1387.5 914.692ZM1387.5 913.6L1392.45 908.656L1387.5 903.7L1382.56 908.656L1387.5 913.6ZM1513.04 914.692L1506.99 908.656L1513.04 902.608L1519.07 908.656L1513.04 914.692ZM1513.04 913.6L1517.98 908.656L1513.04 903.7L1508.09 908.656L1513.04 913.6ZM1638.57 914.692L1632.52 908.656L1638.57 902.608L1644.6 908.656L1638.57 914.692ZM1638.57 913.6L1643.51 908.656L1638.57 903.7L1633.62 908.656L1638.57 913.6Z" fill="#F4DDFB"/>
<path d="M66.66 1004.69L60.612 998.656L66.66 992.608L72.696 998.656L66.66 1004.69ZM66.66 1003.6L71.604 998.656L66.66 993.7L61.716 998.656L66.66 1003.6ZM192.191 1004.69L186.143 998.656L192.191 992.608L198.227 998.656L192.191 1004.69ZM192.191 1003.6L197.135 998.656L192.191 993.7L187.247 998.656L192.191 1003.6ZM317.723 1004.69L311.675 998.656L317.723 992.608L323.759 998.656L317.723 1004.69ZM317.723 1003.6L322.667 998.656L317.723 993.7L312.779 998.656L317.723 1003.6ZM443.254 1004.69L437.206 998.656L443.254 992.608L449.29 998.656L443.254 1004.69ZM443.254 1003.6L448.198 998.656L443.254 993.7L438.31 998.656L443.254 1003.6ZM568.785 1004.69L562.737 998.656L568.785 992.608L574.821 998.656L568.785 1004.69ZM568.785 1003.6L573.729 998.656L568.785 993.7L563.841 998.656L568.785 1003.6ZM694.316 1004.69L688.268 998.656L694.316 992.608L700.352 998.656L694.316 1004.69ZM694.316 1003.6L699.26 998.656L694.316 993.7L689.372 998.656L694.316 1003.6ZM819.848 1004.69L813.8 998.656L819.848 992.608L825.884 998.656L819.848 1004.69ZM819.848 1003.6L824.792 998.656L819.848 993.7L814.904 998.656L819.848 1003.6ZM945.379 1004.69L939.331 998.656L945.379 992.608L951.415 998.656L945.379 1004.69ZM945.379 1003.6L950.323 998.656L945.379 993.7L940.435 998.656L945.379 1003.6ZM1070.91 1004.69L1064.86 998.656L1070.91 992.608L1076.95 998.656L1070.91 1004.69ZM1070.91 1003.6L1075.85 998.656L1070.91 993.7L1065.97 998.656L1070.91 1003.6ZM1196.44 1004.69L1190.39 998.656L1196.44 992.608L1202.48 998.656L1196.44 1004.69ZM1196.44 1003.6L1201.39 998.656L1196.44 993.7L1191.5 998.656L1196.44 1003.6ZM1321.97 1004.69L1315.92 998.656L1321.97 992.608L1328.01 998.656L1321.97 1004.69ZM1321.97 1003.6L1326.92 998.656L1321.97 993.7L1317.03 998.656L1321.97 1003.6ZM1447.5 1004.69L1441.46 998.656L1447.5 992.608L1453.54 998.656L1447.5 1004.69ZM1447.5 1003.6L1452.45 998.656L1447.5 993.7L1442.56 998.656L1447.5 1003.6ZM1573.04 1004.69L1566.99 998.656L1573.04 992.608L1579.07 998.656L1573.04 1004.69ZM1573.04 1003.6L1577.98 998.656L1573.04 993.7L1568.09 998.656L1573.04 1003.6ZM1698.57 1004.69L1692.52 998.656L1698.57 992.608L1704.6 998.656L1698.57 1004.69ZM1698.57 1003.6L1703.51 998.656L1698.57 993.7L1693.62 998.656L1698.57 1003.6Z" fill="#F4DDFB"/>
<path d="M66.66 1064.69L60.612 1058.66L66.66 1052.61L72.696 1058.66L66.66 1064.69ZM66.66 1063.6L71.604 1058.66L66.66 1053.7L61.716 1058.66L66.66 1063.6ZM192.191 1064.69L186.143 1058.66L192.191 1052.61L198.227 1058.66L192.191 1064.69ZM192.191 1063.6L197.135 1058.66L192.191 1053.7L187.247 1058.66L192.191 1063.6ZM317.723 1064.69L311.675 1058.66L317.723 1052.61L323.759 1058.66L317.723 1064.69ZM317.723 1063.6L322.667 1058.66L317.723 1053.7L312.779 1058.66L317.723 1063.6ZM443.254 1064.69L437.206 1058.66L443.254 1052.61L449.29 1058.66L443.254 1064.69ZM443.254 1063.6L448.198 1058.66L443.254 1053.7L438.31 1058.66L443.254 1063.6ZM568.785 1064.69L562.737 1058.66L568.785 1052.61L574.821 1058.66L568.785 1064.69ZM568.785 1063.6L573.729 1058.66L568.785 1053.7L563.841 1058.66L568.785 1063.6ZM694.316 1064.69L688.268 1058.66L694.316 1052.61L700.352 1058.66L694.316 1064.69ZM694.316 1063.6L699.26 1058.66L694.316 1053.7L689.372 1058.66L694.316 1063.6ZM819.848 1064.69L813.8 1058.66L819.848 1052.61L825.884 1058.66L819.848 1064.69ZM819.848 1063.6L824.792 1058.66L819.848 1053.7L814.904 1058.66L819.848 1063.6ZM945.379 1064.69L939.331 1058.66L945.379 1052.61L951.415 1058.66L945.379 1064.69ZM945.379 1063.6L950.323 1058.66L945.379 1053.7L940.435 1058.66L945.379 1063.6ZM1070.91 1064.69L1064.86 1058.66L1070.91 1052.61L1076.95 1058.66L1070.91 1064.69ZM1070.91 1063.6L1075.85 1058.66L1070.91 1053.7L1065.97 1058.66L1070.91 1063.6ZM1196.44 1064.69L1190.39 1058.66L1196.44 1052.61L1202.48 1058.66L1196.44 1064.69ZM1196.44 1063.6L1201.39 1058.66L1196.44 1053.7L1191.5 1058.66L1196.44 1063.6ZM1321.97 1064.69L1315.92 1058.66L1321.97 1052.61L1328.01 1058.66L1321.97 1064.69ZM1321.97 1063.6L1326.92 1058.66L1321.97 1053.7L1317.03 1058.66L1321.97 1063.6ZM1447.5 1064.69L1441.46 1058.66L1447.5 1052.61L1453.54 1058.66L1447.5 1064.69ZM1447.5 1063.6L1452.45 1058.66L1447.5 1053.7L1442.56 1058.66L1447.5 1063.6ZM1573.04 1064.69L1566.99 1058.66L1573.04 1052.61L1579.07 1058.66L1573.04 1064.69ZM1573.04 1063.6L1577.98 1058.66L1573.04 1053.7L1568.09 1058.66L1573.04 1063.6ZM1698.57 1064.69L1692.52 1058.66L1698.57 1052.61L1704.6 1058.66L1698.57 1064.69ZM1698.57 1063.6L1703.51 1058.66L1698.57 1053.7L1693.62 1058.66L1698.57 1063.6Z" fill="#F4DDFB"/>
<path d="M6.66 974.692L0.612 968.656L6.66 962.608L12.696 968.656L6.66 974.692ZM6.66 973.6L11.604 968.656L6.66 963.7L1.716 968.656L6.66 973.6ZM132.191 974.692L126.143 968.656L132.191 962.608L138.227 968.656L132.191 974.692ZM132.191 973.6L137.135 968.656L132.191 963.7L127.247 968.656L132.191 973.6ZM257.723 974.692L251.675 968.656L257.723 962.608L263.759 968.656L257.723 974.692ZM257.723 973.6L262.667 968.656L257.723 963.7L252.779 968.656L257.723 973.6ZM383.254 974.692L377.206 968.656L383.254 962.608L389.29 968.656L383.254 974.692ZM383.254 973.6L388.198 968.656L383.254 963.7L378.31 968.656L383.254 973.6ZM508.785 974.692L502.737 968.656L508.785 962.608L514.821 968.656L508.785 974.692ZM508.785 973.6L513.729 968.656L508.785 963.7L503.841 968.656L508.785 973.6ZM634.316 974.692L628.268 968.656L634.316 962.608L640.352 968.656L634.316 974.692ZM634.316 973.6L639.26 968.656L634.316 963.7L629.372 968.656L634.316 973.6ZM759.848 974.692L753.8 968.656L759.848 962.608L765.884 968.656L759.848 974.692ZM759.848 973.6L764.792 968.656L759.848 963.7L754.904 968.656L759.848 973.6ZM885.379 974.692L879.331 968.656L885.379 962.608L891.415 968.656L885.379 974.692ZM885.379 973.6L890.323 968.656L885.379 963.7L880.435 968.656L885.379 973.6ZM1010.91 974.692L1004.86 968.656L1010.91 962.608L1016.95 968.656L1010.91 974.692ZM1010.91 973.6L1015.85 968.656L1010.91 963.7L1005.97 968.656L1010.91 973.6ZM1136.44 974.692L1130.39 968.656L1136.44 962.608L1142.48 968.656L1136.44 974.692ZM1136.44 973.6L1141.39 968.656L1136.44 963.7L1131.5 968.656L1136.44 973.6ZM1261.97 974.692L1255.92 968.656L1261.97 962.608L1268.01 968.656L1261.97 974.692ZM1261.97 973.6L1266.92 968.656L1261.97 963.7L1257.03 968.656L1261.97 973.6ZM1387.5 974.692L1381.46 968.656L1387.5 962.608L1393.54 968.656L1387.5 974.692ZM1387.5 973.6L1392.45 968.656L1387.5 963.7L1382.56 968.656L1387.5 973.6ZM1513.04 974.692L1506.99 968.656L1513.04 962.608L1519.07 968.656L1513.04 974.692ZM1513.04 973.6L1517.98 968.656L1513.04 963.7L1508.09 968.656L1513.04 973.6ZM1638.57 974.692L1632.52 968.656L1638.57 962.608L1644.6 968.656L1638.57 974.692ZM1638.57 973.6L1643.51 968.656L1638.57 963.7L1633.62 968.656L1638.57 973.6Z" fill="#F4DDFB"/>
<path d="M6.66 1034.69L0.612 1028.66L6.66 1022.61L12.696 1028.66L6.66 1034.69ZM6.66 1033.6L11.604 1028.66L6.66 1023.7L1.716 1028.66L6.66 1033.6ZM132.191 1034.69L126.143 1028.66L132.191 1022.61L138.227 1028.66L132.191 1034.69ZM132.191 1033.6L137.135 1028.66L132.191 1023.7L127.247 1028.66L132.191 1033.6ZM257.723 1034.69L251.675 1028.66L257.723 1022.61L263.759 1028.66L257.723 1034.69ZM257.723 1033.6L262.667 1028.66L257.723 1023.7L252.779 1028.66L257.723 1033.6ZM383.254 1034.69L377.206 1028.66L383.254 1022.61L389.29 1028.66L383.254 1034.69ZM383.254 1033.6L388.198 1028.66L383.254 1023.7L378.31 1028.66L383.254 1033.6ZM508.785 1034.69L502.737 1028.66L508.785 1022.61L514.821 1028.66L508.785 1034.69ZM508.785 1033.6L513.729 1028.66L508.785 1023.7L503.841 1028.66L508.785 1033.6ZM634.316 1034.69L628.268 1028.66L634.316 1022.61L640.352 1028.66L634.316 1034.69ZM634.316 1033.6L639.26 1028.66L634.316 1023.7L629.372 1028.66L634.316 1033.6ZM759.848 1034.69L753.8 1028.66L759.848 1022.61L765.884 1028.66L759.848 1034.69ZM759.848 1033.6L764.792 1028.66L759.848 1023.7L754.904 1028.66L759.848 1033.6ZM885.379 1034.69L879.331 1028.66L885.379 1022.61L891.415 1028.66L885.379 1034.69ZM885.379 1033.6L890.323 1028.66L885.379 1023.7L880.435 1028.66L885.379 1033.6ZM1010.91 1034.69L1004.86 1028.66L1010.91 1022.61L1016.95 1028.66L1010.91 1034.69ZM1010.91 1033.6L1015.85 1028.66L1010.91 1023.7L1005.97 1028.66L1010.91 1033.6ZM1136.44 1034.69L1130.39 1028.66L1136.44 1022.61L1142.48 1028.66L1136.44 1034.69ZM1136.44 1033.6L1141.39 1028.66L1136.44 1023.7L1131.5 1028.66L1136.44 1033.6ZM1261.97 1034.69L1255.92 1028.66L1261.97 1022.61L1268.01 1028.66L1261.97 1034.69ZM1261.97 1033.6L1266.92 1028.66L1261.97 1023.7L1257.03 1028.66L1261.97 1033.6ZM1387.5 1034.69L1381.46 1028.66L1387.5 1022.61L1393.54 1028.66L1387.5 1034.69ZM1387.5 1033.6L1392.45 1028.66L1387.5 1023.7L1382.56 1028.66L1387.5 1033.6ZM1513.04 1034.69L1506.99 1028.66L1513.04 1022.61L1519.07 1028.66L1513.04 1034.69ZM1513.04 1033.6L1517.98 1028.66L1513.04 1023.7L1508.09 1028.66L1513.04 1033.6ZM1638.57 1034.69L1632.52 1028.66L1638.57 1022.61L1644.6 1028.66L1638.57 1034.69ZM1638.57 1033.6L1643.51 1028.66L1638.57 1023.7L1633.62 1028.66L1638.57 1033.6Z" fill="#F4DDFB"/>
<path d="M66.66 1124.69L60.612 1118.66L66.66 1112.61L72.696 1118.66L66.66 1124.69ZM66.66 1123.6L71.604 1118.66L66.66 1113.7L61.716 1118.66L66.66 1123.6ZM192.191 1124.69L186.143 1118.66L192.191 1112.61L198.227 1118.66L192.191 1124.69ZM192.191 1123.6L197.135 1118.66L192.191 1113.7L187.247 1118.66L192.191 1123.6ZM317.723 1124.69L311.675 1118.66L317.723 1112.61L323.759 1118.66L317.723 1124.69ZM317.723 1123.6L322.667 1118.66L317.723 1113.7L312.779 1118.66L317.723 1123.6ZM443.254 1124.69L437.206 1118.66L443.254 1112.61L449.29 1118.66L443.254 1124.69ZM443.254 1123.6L448.198 1118.66L443.254 1113.7L438.31 1118.66L443.254 1123.6ZM568.785 1124.69L562.737 1118.66L568.785 1112.61L574.821 1118.66L568.785 1124.69ZM568.785 1123.6L573.729 1118.66L568.785 1113.7L563.841 1118.66L568.785 1123.6ZM694.316 1124.69L688.268 1118.66L694.316 1112.61L700.352 1118.66L694.316 1124.69ZM694.316 1123.6L699.26 1118.66L694.316 1113.7L689.372 1118.66L694.316 1123.6ZM819.848 1124.69L813.8 1118.66L819.848 1112.61L825.884 1118.66L819.848 1124.69ZM819.848 1123.6L824.792 1118.66L819.848 1113.7L814.904 1118.66L819.848 1123.6ZM945.379 1124.69L939.331 1118.66L945.379 1112.61L951.415 1118.66L945.379 1124.69ZM945.379 1123.6L950.323 1118.66L945.379 1113.7L940.435 1118.66L945.379 1123.6ZM1070.91 1124.69L1064.86 1118.66L1070.91 1112.61L1076.95 1118.66L1070.91 1124.69ZM1070.91 1123.6L1075.85 1118.66L1070.91 1113.7L1065.97 1118.66L1070.91 1123.6ZM1196.44 1124.69L1190.39 1118.66L1196.44 1112.61L1202.48 1118.66L1196.44 1124.69ZM1196.44 1123.6L1201.39 1118.66L1196.44 1113.7L1191.5 1118.66L1196.44 1123.6ZM1321.97 1124.69L1315.92 1118.66L1321.97 1112.61L1328.01 1118.66L1321.97 1124.69ZM1321.97 1123.6L1326.92 1118.66L1321.97 1113.7L1317.03 1118.66L1321.97 1123.6ZM1447.5 1124.69L1441.46 1118.66L1447.5 1112.61L1453.54 1118.66L1447.5 1124.69ZM1447.5 1123.6L1452.45 1118.66L1447.5 1113.7L1442.56 1118.66L1447.5 1123.6ZM1573.04 1124.69L1566.99 1118.66L1573.04 1112.61L1579.07 1118.66L1573.04 1124.69ZM1573.04 1123.6L1577.98 1118.66L1573.04 1113.7L1568.09 1118.66L1573.04 1123.6ZM1698.57 1124.69L1692.52 1118.66L1698.57 1112.61L1704.6 1118.66L1698.57 1124.69ZM1698.57 1123.6L1703.51 1118.66L1698.57 1113.7L1693.62 1118.66L1698.57 1123.6Z" fill="#F4DDFB"/>
<path d="M66.66 1184.69L60.612 1178.66L66.66 1172.61L72.696 1178.66L66.66 1184.69ZM66.66 1183.6L71.604 1178.66L66.66 1173.7L61.716 1178.66L66.66 1183.6ZM192.191 1184.69L186.143 1178.66L192.191 1172.61L198.227 1178.66L192.191 1184.69ZM192.191 1183.6L197.135 1178.66L192.191 1173.7L187.247 1178.66L192.191 1183.6ZM317.723 1184.69L311.675 1178.66L317.723 1172.61L323.759 1178.66L317.723 1184.69ZM317.723 1183.6L322.667 1178.66L317.723 1173.7L312.779 1178.66L317.723 1183.6ZM443.254 1184.69L437.206 1178.66L443.254 1172.61L449.29 1178.66L443.254 1184.69ZM443.254 1183.6L448.198 1178.66L443.254 1173.7L438.31 1178.66L443.254 1183.6ZM568.785 1184.69L562.737 1178.66L568.785 1172.61L574.821 1178.66L568.785 1184.69ZM568.785 1183.6L573.729 1178.66L568.785 1173.7L563.841 1178.66L568.785 1183.6ZM694.316 1184.69L688.268 1178.66L694.316 1172.61L700.352 1178.66L694.316 1184.69ZM694.316 1183.6L699.26 1178.66L694.316 1173.7L689.372 1178.66L694.316 1183.6ZM819.848 1184.69L813.8 1178.66L819.848 1172.61L825.884 1178.66L819.848 1184.69ZM819.848 1183.6L824.792 1178.66L819.848 1173.7L814.904 1178.66L819.848 1183.6ZM945.379 1184.69L939.331 1178.66L945.379 1172.61L951.415 1178.66L945.379 1184.69ZM945.379 1183.6L950.323 1178.66L945.379 1173.7L940.435 1178.66L945.379 1183.6ZM1070.91 1184.69L1064.86 1178.66L1070.91 1172.61L1076.95 1178.66L1070.91 1184.69ZM1070.91 1183.6L1075.85 1178.66L1070.91 1173.7L1065.97 1178.66L1070.91 1183.6ZM1196.44 1184.69L1190.39 1178.66L1196.44 1172.61L1202.48 1178.66L1196.44 1184.69ZM1196.44 1183.6L1201.39 1178.66L1196.44 1173.7L1191.5 1178.66L1196.44 1183.6ZM1321.97 1184.69L1315.92 1178.66L1321.97 1172.61L1328.01 1178.66L1321.97 1184.69ZM1321.97 1183.6L1326.92 1178.66L1321.97 1173.7L1317.03 1178.66L1321.97 1183.6ZM1447.5 1184.69L1441.46 1178.66L1447.5 1172.61L1453.54 1178.66L1447.5 1184.69ZM1447.5 1183.6L1452.45 1178.66L1447.5 1173.7L1442.56 1178.66L1447.5 1183.6ZM1573.04 1184.69L1566.99 1178.66L1573.04 1172.61L1579.07 1178.66L1573.04 1184.69ZM1573.04 1183.6L1577.98 1178.66L1573.04 1173.7L1568.09 1178.66L1573.04 1183.6ZM1698.57 1184.69L1692.52 1178.66L1698.57 1172.61L1704.6 1178.66L1698.57 1184.69ZM1698.57 1183.6L1703.51 1178.66L1698.57 1173.7L1693.62 1178.66L1698.57 1183.6Z" fill="#F4DDFB"/>
<path d="M6.66 1094.69L0.612 1088.66L6.66 1082.61L12.696 1088.66L6.66 1094.69ZM6.66 1093.6L11.604 1088.66L6.66 1083.7L1.716 1088.66L6.66 1093.6ZM132.191 1094.69L126.143 1088.66L132.191 1082.61L138.227 1088.66L132.191 1094.69ZM132.191 1093.6L137.135 1088.66L132.191 1083.7L127.247 1088.66L132.191 1093.6ZM257.723 1094.69L251.675 1088.66L257.723 1082.61L263.759 1088.66L257.723 1094.69ZM257.723 1093.6L262.667 1088.66L257.723 1083.7L252.779 1088.66L257.723 1093.6ZM383.254 1094.69L377.206 1088.66L383.254 1082.61L389.29 1088.66L383.254 1094.69ZM383.254 1093.6L388.198 1088.66L383.254 1083.7L378.31 1088.66L383.254 1093.6ZM508.785 1094.69L502.737 1088.66L508.785 1082.61L514.821 1088.66L508.785 1094.69ZM508.785 1093.6L513.729 1088.66L508.785 1083.7L503.841 1088.66L508.785 1093.6ZM634.316 1094.69L628.268 1088.66L634.316 1082.61L640.352 1088.66L634.316 1094.69ZM634.316 1093.6L639.26 1088.66L634.316 1083.7L629.372 1088.66L634.316 1093.6ZM759.848 1094.69L753.8 1088.66L759.848 1082.61L765.884 1088.66L759.848 1094.69ZM759.848 1093.6L764.792 1088.66L759.848 1083.7L754.904 1088.66L759.848 1093.6ZM885.379 1094.69L879.331 1088.66L885.379 1082.61L891.415 1088.66L885.379 1094.69ZM885.379 1093.6L890.323 1088.66L885.379 1083.7L880.435 1088.66L885.379 1093.6ZM1010.91 1094.69L1004.86 1088.66L1010.91 1082.61L1016.95 1088.66L1010.91 1094.69ZM1010.91 1093.6L1015.85 1088.66L1010.91 1083.7L1005.97 1088.66L1010.91 1093.6ZM1136.44 1094.69L1130.39 1088.66L1136.44 1082.61L1142.48 1088.66L1136.44 1094.69ZM1136.44 1093.6L1141.39 1088.66L1136.44 1083.7L1131.5 1088.66L1136.44 1093.6ZM1261.97 1094.69L1255.92 1088.66L1261.97 1082.61L1268.01 1088.66L1261.97 1094.69ZM1261.97 1093.6L1266.92 1088.66L1261.97 1083.7L1257.03 1088.66L1261.97 1093.6ZM1387.5 1094.69L1381.46 1088.66L1387.5 1082.61L1393.54 1088.66L1387.5 1094.69ZM1387.5 1093.6L1392.45 1088.66L1387.5 1083.7L1382.56 1088.66L1387.5 1093.6ZM1513.04 1094.69L1506.99 1088.66L1513.04 1082.61L1519.07 1088.66L1513.04 1094.69ZM1513.04 1093.6L1517.98 1088.66L1513.04 1083.7L1508.09 1088.66L1513.04 1093.6ZM1638.57 1094.69L1632.52 1088.66L1638.57 1082.61L1644.6 1088.66L1638.57 1094.69ZM1638.57 1093.6L1643.51 1088.66L1638.57 1083.7L1633.62 1088.66L1638.57 1093.6Z" fill="#F4DDFB"/>
<path d="M6.66 1154.69L0.612 1148.66L6.66 1142.61L12.696 1148.66L6.66 1154.69ZM6.66 1153.6L11.604 1148.66L6.66 1143.7L1.716 1148.66L6.66 1153.6ZM132.191 1154.69L126.143 1148.66L132.191 1142.61L138.227 1148.66L132.191 1154.69ZM132.191 1153.6L137.135 1148.66L132.191 1143.7L127.247 1148.66L132.191 1153.6ZM257.723 1154.69L251.675 1148.66L257.723 1142.61L263.759 1148.66L257.723 1154.69ZM257.723 1153.6L262.667 1148.66L257.723 1143.7L252.779 1148.66L257.723 1153.6ZM383.254 1154.69L377.206 1148.66L383.254 1142.61L389.29 1148.66L383.254 1154.69ZM383.254 1153.6L388.198 1148.66L383.254 1143.7L378.31 1148.66L383.254 1153.6ZM508.785 1154.69L502.737 1148.66L508.785 1142.61L514.821 1148.66L508.785 1154.69ZM508.785 1153.6L513.729 1148.66L508.785 1143.7L503.841 1148.66L508.785 1153.6ZM634.316 1154.69L628.268 1148.66L634.316 1142.61L640.352 1148.66L634.316 1154.69ZM634.316 1153.6L639.26 1148.66L634.316 1143.7L629.372 1148.66L634.316 1153.6ZM759.848 1154.69L753.8 1148.66L759.848 1142.61L765.884 1148.66L759.848 1154.69ZM759.848 1153.6L764.792 1148.66L759.848 1143.7L754.904 1148.66L759.848 1153.6ZM885.379 1154.69L879.331 1148.66L885.379 1142.61L891.415 1148.66L885.379 1154.69ZM885.379 1153.6L890.323 1148.66L885.379 1143.7L880.435 1148.66L885.379 1153.6ZM1010.91 1154.69L1004.86 1148.66L1010.91 1142.61L1016.95 1148.66L1010.91 1154.69ZM1010.91 1153.6L1015.85 1148.66L1010.91 1143.7L1005.97 1148.66L1010.91 1153.6ZM1136.44 1154.69L1130.39 1148.66L1136.44 1142.61L1142.48 1148.66L1136.44 1154.69ZM1136.44 1153.6L1141.39 1148.66L1136.44 1143.7L1131.5 1148.66L1136.44 1153.6ZM1261.97 1154.69L1255.92 1148.66L1261.97 1142.61L1268.01 1148.66L1261.97 1154.69ZM1261.97 1153.6L1266.92 1148.66L1261.97 1143.7L1257.03 1148.66L1261.97 1153.6ZM1387.5 1154.69L1381.46 1148.66L1387.5 1142.61L1393.54 1148.66L1387.5 1154.69ZM1387.5 1153.6L1392.45 1148.66L1387.5 1143.7L1382.56 1148.66L1387.5 1153.6ZM1513.04 1154.69L1506.99 1148.66L1513.04 1142.61L1519.07 1148.66L1513.04 1154.69ZM1513.04 1153.6L1517.98 1148.66L1513.04 1143.7L1508.09 1148.66L1513.04 1153.6ZM1638.57 1154.69L1632.52 1148.66L1638.57 1142.61L1644.6 1148.66L1638.57 1154.69ZM1638.57 1153.6L1643.51 1148.66L1638.57 1143.7L1633.62 1148.66L1638.57 1153.6Z" fill="#F4DDFB"/>
</svg>
